<svg width="140" height="62" viewBox="0 0 140 62" fill="none" xmlns="http://www.w3.org/2000/svg">
<path d="M13.3061 47V28.8H16.6341V47H13.3061ZM20.0836 47V34.104H23.0216L23.2816 36.288C23.6802 35.5253 24.2522 34.9187 24.9976 34.468C25.7602 34.0173 26.6529 33.792 27.6756 33.792C29.2702 33.792 30.5096 34.2947 31.3936 35.3C32.2776 36.3053 32.7196 37.7787 32.7196 39.72V47H29.3916V40.032C29.3916 38.9227 29.1662 38.0733 28.7156 37.484C28.2649 36.8947 27.5629 36.6 26.6096 36.6C25.6736 36.6 24.9022 36.9293 24.2956 37.588C23.7062 38.2467 23.4116 39.1653 23.4116 40.344V47H20.0836ZM41.8299 47.312C40.6166 47.312 39.5332 47.0173 38.5799 46.428C37.6266 45.8387 36.8726 45.0327 36.3179 44.01C35.7632 42.9873 35.4859 41.826 35.4859 40.526C35.4859 39.226 35.7632 38.0733 36.3179 37.068C36.8726 36.0453 37.6266 35.248 38.5799 34.676C39.5332 34.0867 40.6166 33.792 41.8299 33.792C42.8006 33.792 43.6499 33.974 44.3779 34.338C45.1059 34.702 45.6952 35.2133 46.1459 35.872V28.28H49.4739V47H46.5099L46.1459 45.154C45.7299 45.726 45.1752 46.2287 44.4819 46.662C43.8059 47.0953 42.9219 47.312 41.8299 47.312ZM42.5319 44.4C43.6066 44.4 44.4819 44.0447 45.1579 43.334C45.8512 42.606 46.1979 41.6787 46.1979 40.552C46.1979 39.4253 45.8512 38.5067 45.1579 37.796C44.4819 37.068 43.6066 36.704 42.5319 36.704C41.4746 36.704 40.5992 37.0593 39.9059 37.77C39.2126 38.4807 38.8659 39.3993 38.8659 40.526C38.8659 41.6527 39.2126 42.58 39.9059 43.308C40.5992 44.036 41.4746 44.4 42.5319 44.4ZM59.0509 47.312C57.8029 47.312 56.6762 47.026 55.6709 46.454C54.6829 45.882 53.8942 45.0933 53.3049 44.088C52.7329 43.0653 52.4469 41.8867 52.4469 40.552C52.4469 39.2173 52.7415 38.0473 53.3309 37.042C53.9202 36.0193 54.7089 35.222 55.6969 34.65C56.7022 34.078 57.8289 33.792 59.0769 33.792C60.3075 33.792 61.4169 34.078 62.4049 34.65C63.4102 35.222 64.1989 36.0193 64.7709 37.042C65.3602 38.0473 65.6549 39.2173 65.6549 40.552C65.6549 41.8867 65.3602 43.0653 64.7709 44.088C64.1989 45.0933 63.4102 45.882 62.4049 46.454C61.3995 47.026 60.2815 47.312 59.0509 47.312ZM59.0509 44.426C59.9175 44.426 60.6715 44.1053 61.3129 43.464C61.9542 42.8053 62.2749 41.8347 62.2749 40.552C62.2749 39.2693 61.9542 38.3073 61.3129 37.666C60.6715 37.0073 59.9262 36.678 59.0769 36.678C58.1929 36.678 57.4302 37.0073 56.7889 37.666C56.1649 38.3073 55.8529 39.2693 55.8529 40.552C55.8529 41.8347 56.1649 42.8053 56.7889 43.464C57.4302 44.1053 58.1842 44.426 59.0509 44.426ZM68.3444 40.864V38.082H79.2384V40.864H68.3444ZM82.4194 47V28.8H94.3014V31.478H85.7474V36.47H93.5214V39.07H85.7474V44.322H94.3014V47H82.4194ZM103.301 47.312C102.087 47.312 101.004 47.0173 100.051 46.428C99.0973 45.8387 98.3433 45.0327 97.7886 44.01C97.234 42.9873 96.9566 41.826 96.9566 40.526C96.9566 39.226 97.234 38.0733 97.7886 37.068C98.3433 36.0453 99.0973 35.248 100.051 34.676C101.004 34.0867 102.087 33.792 103.301 33.792C104.271 33.792 105.121 33.974 105.849 34.338C106.577 34.702 107.166 35.2133 107.617 35.872V28.28H110.945V47H107.981L107.617 45.154C107.201 45.726 106.646 46.2287 105.953 46.662C105.277 47.0953 104.393 47.312 103.301 47.312ZM104.003 44.4C105.077 44.4 105.953 44.0447 106.629 43.334C107.322 42.606 107.669 41.6787 107.669 40.552C107.669 39.4253 107.322 38.5067 106.629 37.796C105.953 37.068 105.077 36.704 104.003 36.704C102.945 36.704 102.07 37.0593 101.377 37.77C100.683 38.4807 100.337 39.3993 100.337 40.526C100.337 41.6527 100.683 42.58 101.377 43.308C102.07 44.036 102.945 44.4 104.003 44.4ZM126.762 34.104V47H123.824L123.564 44.816C123.165 45.5787 122.584 46.1853 121.822 46.636C121.076 47.0867 120.192 47.312 119.17 47.312C117.575 47.312 116.336 46.8093 115.452 45.804C114.568 44.7987 114.126 43.3253 114.126 41.384V34.104H117.454V41.072C117.454 42.1813 117.679 43.0307 118.13 43.62C118.58 44.2093 119.282 44.504 120.236 44.504C121.172 44.504 121.934 44.1747 122.524 43.516C123.13 42.8573 123.434 41.9387 123.434 40.76V34.104H126.762Z" fill="#161178"/>
<path d="M69.5 23.7188C69.3205 23.7188 69.1441 23.6719 68.9882 23.5828L59.9609 18.4233C59.8825 18.378 59.7935 18.3542 59.7029 18.3542C59.6124 18.3543 59.5234 18.3782 59.445 18.4235C59.3666 18.4689 59.3015 18.5341 59.2563 18.6126C59.2111 18.691 59.1874 18.7801 59.1875 18.8706V23.7188C59.1873 23.9029 59.2365 24.0836 59.3297 24.2423C59.423 24.4009 59.5571 24.5318 59.7179 24.6211L68.9992 29.7774C69.1524 29.8625 69.3247 29.9072 69.5 29.9072C69.6752 29.9072 69.8476 29.8625 70.0008 29.7774L79.282 24.6211C79.4429 24.5318 79.577 24.4009 79.6703 24.2423C79.7635 24.0836 79.8126 23.9029 79.8125 23.7188V18.8706C79.8126 18.7801 79.7889 18.691 79.7437 18.6126C79.6985 18.5341 79.6334 18.4689 79.555 18.4235C79.4766 18.3782 79.3876 18.3543 79.2971 18.3542C79.2065 18.3542 79.1175 18.378 79.0391 18.4233L70.0118 23.5828C69.8559 23.6719 69.6795 23.7188 69.5 23.7188Z" fill="black"/>
<path d="M84.9638 12.2783V12.2712C84.9471 12.1077 84.8916 11.9506 84.8019 11.8129C84.7123 11.6752 84.591 11.561 84.4482 11.4797L70.0107 3.22969C69.8548 3.14061 69.6784 3.09375 69.4989 3.09375C69.3194 3.09375 69.143 3.14061 68.9872 3.22969L54.5497 11.4797C54.3919 11.5699 54.2607 11.7002 54.1695 11.8574C54.0783 12.0147 54.0303 12.1932 54.0303 12.3749C54.0303 12.5567 54.0783 12.7352 54.1695 12.8924C54.2607 13.0497 54.3919 13.18 54.5497 13.2702L68.9872 21.5202C69.143 21.6093 69.3194 21.6561 69.4989 21.6561C69.6784 21.6561 69.8548 21.6093 70.0107 21.5202L82.7131 14.2621C82.7327 14.2508 82.755 14.2448 82.7777 14.2449C82.8004 14.2449 82.8226 14.2509 82.8422 14.2623C82.8618 14.2736 82.8781 14.29 82.8894 14.3096C82.9007 14.3293 82.9066 14.3516 82.9065 14.3743V23.6897C82.9065 24.2446 83.3331 24.7209 83.8881 24.7487C84.0275 24.7554 84.1669 24.7337 84.2977 24.685C84.4285 24.6363 84.5481 24.5615 84.6491 24.4652C84.7502 24.3689 84.8306 24.2531 84.8856 24.1247C84.9406 23.9964 84.969 23.8583 84.969 23.7187V12.3749C84.9689 12.3427 84.9672 12.3104 84.9638 12.2783Z" fill="black"/>
</svg>
