<svg width="349" height="147" viewBox="0 0 349 147" fill="none" xmlns="http://www.w3.org/2000/svg">
<path d="M43.6679 104V62H51.3479V104H43.6679ZM59.3082 104V74.24H66.0882L66.6882 79.28C67.6082 77.52 68.9282 76.12 70.6482 75.08C72.4082 74.04 74.4682 73.52 76.8282 73.52C80.5082 73.52 83.3682 74.68 85.4082 77C87.4482 79.32 88.4682 82.72 88.4682 87.2V104H80.7882V87.92C80.7882 85.36 80.2682 83.4 79.2282 82.04C78.1882 80.68 76.5682 80 74.3682 80C72.2082 80 70.4282 80.76 69.0282 82.28C67.6682 83.8 66.9882 85.92 66.9882 88.64V104H59.3082ZM109.492 104.72C106.692 104.72 104.192 104.04 101.992 102.68C99.7921 101.32 98.0521 99.46 96.7721 97.1C95.4921 94.74 94.8521 92.06 94.8521 89.06C94.8521 86.06 95.4921 83.4 96.7721 81.08C98.0521 78.72 99.7921 76.88 101.992 75.56C104.192 74.2 106.692 73.52 109.492 73.52C111.732 73.52 113.692 73.94 115.372 74.78C117.052 75.62 118.412 76.8 119.452 78.32V60.8H127.132V104H120.292L119.452 99.74C118.492 101.06 117.212 102.22 115.612 103.22C114.052 104.22 112.012 104.72 109.492 104.72ZM111.112 98C113.592 98 115.612 97.18 117.172 95.54C118.772 93.86 119.572 91.72 119.572 89.12C119.572 86.52 118.772 84.4 117.172 82.76C115.612 81.08 113.592 80.24 111.112 80.24C108.672 80.24 106.652 81.06 105.052 82.7C103.452 84.34 102.652 86.46 102.652 89.06C102.652 91.66 103.452 93.8 105.052 95.48C106.652 97.16 108.672 98 111.112 98ZM149.233 104.72C146.353 104.72 143.753 104.06 141.433 102.74C139.153 101.42 137.333 99.6 135.973 97.28C134.653 94.92 133.993 92.2 133.993 89.12C133.993 86.04 134.673 83.34 136.033 81.02C137.393 78.66 139.213 76.82 141.493 75.5C143.813 74.18 146.413 73.52 149.293 73.52C152.133 73.52 154.693 74.18 156.973 75.5C159.293 76.82 161.113 78.66 162.433 81.02C163.793 83.34 164.473 86.04 164.473 89.12C164.473 92.2 163.793 94.92 162.433 97.28C161.113 99.6 159.293 101.42 156.973 102.74C154.653 104.06 152.073 104.72 149.233 104.72ZM149.233 98.06C151.233 98.06 152.973 97.32 154.453 95.84C155.933 94.32 156.673 92.08 156.673 89.12C156.673 86.16 155.933 83.94 154.453 82.46C152.973 80.94 151.253 80.18 149.293 80.18C147.253 80.18 145.493 80.94 144.013 82.46C142.573 83.94 141.853 86.16 141.853 89.12C141.853 92.08 142.573 94.32 144.013 95.84C145.493 97.32 147.233 98.06 149.233 98.06ZM170.679 89.84V83.42H195.819V89.84H170.679ZM203.16 104V62H230.58V68.18H210.84V79.7H228.78V85.7H210.84V97.82H230.58V104H203.16ZM251.348 104.72C248.548 104.72 246.048 104.04 243.848 102.68C241.648 101.32 239.908 99.46 238.628 97.1C237.348 94.74 236.708 92.06 236.708 89.06C236.708 86.06 237.348 83.4 238.628 81.08C239.908 78.72 241.648 76.88 243.848 75.56C246.048 74.2 248.548 73.52 251.348 73.52C253.588 73.52 255.548 73.94 257.228 74.78C258.908 75.62 260.268 76.8 261.308 78.32V60.8H268.988V104H262.148L261.308 99.74C260.348 101.06 259.068 102.22 257.468 103.22C255.908 104.22 253.868 104.72 251.348 104.72ZM252.968 98C255.448 98 257.468 97.18 259.028 95.54C260.628 93.86 261.428 91.72 261.428 89.12C261.428 86.52 260.628 84.4 259.028 82.76C257.468 81.08 255.448 80.24 252.968 80.24C250.528 80.24 248.508 81.06 246.908 82.7C245.308 84.34 244.508 86.46 244.508 89.06C244.508 91.66 245.308 93.8 246.908 95.48C248.508 97.16 250.528 98 252.968 98ZM305.488 74.24V104H298.708L298.108 98.96C297.188 100.72 295.848 102.12 294.088 103.16C292.368 104.2 290.328 104.72 287.968 104.72C284.288 104.72 281.428 103.56 279.388 101.24C277.348 98.92 276.328 95.52 276.328 91.04V74.24H284.008V90.32C284.008 92.88 284.528 94.84 285.568 96.2C286.608 97.56 288.228 98.24 290.428 98.24C292.588 98.24 294.348 97.48 295.708 95.96C297.108 94.44 297.808 92.32 297.808 89.6V74.24H305.488Z" fill="white" fill-opacity="0.2"/>
<path d="M173.5 53.466C173.056 53.466 172.62 53.3483 172.235 53.1247L149.913 40.1734C149.719 40.0597 149.498 39.9999 149.275 40C149.051 40.0001 148.831 40.0601 148.637 40.1739C148.443 40.2877 148.282 40.4514 148.17 40.6484C148.058 40.8454 148 41.0689 148 41.2962V53.466C148 53.9281 148.121 54.3818 148.352 54.7801C148.582 55.1784 148.914 55.5067 149.312 55.7311L172.262 68.6743C172.64 68.8879 173.067 69 173.5 69C173.933 69 174.36 68.8879 174.738 68.6743L197.688 55.7311C198.086 55.5067 198.418 55.1784 198.648 54.7801C198.879 54.3818 199 53.9281 199 53.466V41.2962C199 41.0689 198.942 40.8454 198.83 40.6484C198.718 40.4514 198.557 40.2877 198.363 40.1739C198.169 40.0601 197.949 40.0001 197.725 40C197.501 39.9999 197.281 40.0597 197.087 40.1734L174.765 53.1247C174.38 53.3483 173.944 53.466 173.5 53.466Z" fill="white" fill-opacity="0.2"/>
<path d="M211.987 22.9018V22.8841C211.946 22.4765 211.808 22.0848 211.584 21.7415C211.361 21.3982 211.059 21.1133 210.704 20.9105L174.772 0.338969C174.384 0.116842 173.945 0 173.498 0C173.052 0 172.612 0.116842 172.225 0.338969L136.293 20.9105C135.9 21.1355 135.574 21.4604 135.347 21.8525C135.12 22.2445 135 22.6897 135 23.1429C135 23.5961 135.12 24.0413 135.347 24.4333C135.574 24.8253 135.9 25.1503 136.293 25.3752L172.225 45.9468C172.612 46.1689 173.052 46.2858 173.498 46.2858C173.945 46.2858 174.384 46.1689 174.772 45.9468L206.386 27.8486C206.434 27.8204 206.49 27.8055 206.546 27.8056C206.603 27.8056 206.658 27.8206 206.707 27.8489C206.756 27.8773 206.796 27.9181 206.824 27.9671C206.852 28.0161 206.867 28.0717 206.867 28.1283V51.3565C206.867 52.7402 207.929 53.9279 209.31 53.997C209.657 54.0138 210.004 53.9598 210.329 53.8383C210.655 53.7167 210.952 53.5303 211.204 53.2902C211.455 53.05 211.656 52.7612 211.793 52.4413C211.929 52.1213 212 51.7769 212 51.4288V23.1429C212 23.0624 211.996 22.9819 211.987 22.9018Z" fill="white" fill-opacity="0.2"/>
</svg>
