<svg width="325" height="532" viewBox="0 0 325 532" fill="none" xmlns="http://www.w3.org/2000/svg">
<rect width="325" height="532" rx="15" fill="url(#paint0_linear)"/>
<path d="M40.3866 384.192C39.2559 384.192 38.2852 383.952 37.4746 383.472C36.6639 382.981 36.0399 382.304 35.6026 381.44C35.1652 380.565 34.9466 379.557 34.9466 378.416C34.9466 377.275 35.1652 376.267 35.6026 375.392C36.0399 374.517 36.6639 373.835 37.4746 373.344C38.2852 372.853 39.2559 372.608 40.3866 372.608C41.7306 372.608 42.8292 372.944 43.6826 373.616C44.5466 374.277 45.0852 375.211 45.2986 376.416H43.0426C42.9039 375.808 42.6052 375.333 42.1466 374.992C41.6986 374.64 41.1012 374.464 40.3546 374.464C39.3199 374.464 38.5092 374.816 37.9226 375.52C37.3359 376.224 37.0426 377.189 37.0426 378.416C37.0426 379.643 37.3359 380.608 37.9226 381.312C38.5092 382.005 39.3199 382.352 40.3546 382.352C41.1012 382.352 41.6986 382.192 42.1466 381.872C42.6052 381.541 42.9039 381.088 43.0426 380.512H45.2986C45.0852 381.664 44.5466 382.565 43.6826 383.216C42.8292 383.867 41.7306 384.192 40.3866 384.192ZM47.0634 384V372.48H49.1114V384H47.0634ZM52.3081 374.832C51.9347 374.832 51.6254 374.72 51.3801 374.496C51.1454 374.272 51.0281 373.989 51.0281 373.648C51.0281 373.307 51.1454 373.029 51.3801 372.816C51.6254 372.592 51.9347 372.48 52.3081 372.48C52.6814 372.48 52.9854 372.592 53.2201 372.816C53.4654 373.029 53.5881 373.307 53.5881 373.648C53.5881 373.989 53.4654 374.272 53.2201 374.496C52.9854 374.72 52.6814 374.832 52.3081 374.832ZM51.2841 384V376.064H53.3321V384H51.2841ZM59.3577 384.192C58.547 384.192 57.8324 384.016 57.2137 383.664C56.595 383.312 56.1044 382.821 55.7417 382.192C55.3897 381.563 55.2137 380.843 55.2137 380.032C55.2137 379.221 55.3897 378.501 55.7417 377.872C56.1044 377.243 56.595 376.752 57.2137 376.4C57.8324 376.048 58.547 375.872 59.3577 375.872C60.371 375.872 61.2244 376.139 61.9177 376.672C62.611 377.195 63.0537 377.92 63.2457 378.848H61.0857C60.979 378.464 60.7657 378.165 60.4457 377.952C60.1364 377.728 59.7684 377.616 59.3417 377.616C58.7764 377.616 58.2964 377.829 57.9017 378.256C57.507 378.683 57.3097 379.275 57.3097 380.032C57.3097 380.789 57.507 381.381 57.9017 381.808C58.2964 382.235 58.7764 382.448 59.3417 382.448C59.7684 382.448 60.1364 382.341 60.4457 382.128C60.7657 381.915 60.979 381.611 61.0857 381.216H63.2457C63.0537 382.112 62.611 382.832 61.9177 383.376C61.2244 383.92 60.371 384.192 59.3577 384.192ZM65.0634 384V372.48H67.1114V379.28L69.9274 376.064H72.3594L69.1114 379.68L72.8874 384H70.3274L67.1114 380.016V384H65.0634ZM77.9697 384V372.48H80.0177V377.28C80.2844 376.843 80.6417 376.501 81.0897 376.256C81.5484 376 82.071 375.872 82.6577 375.872C83.639 375.872 84.3964 376.181 84.9297 376.8C85.4737 377.419 85.7457 378.325 85.7457 379.52V384H83.7137V379.712C83.7137 379.029 83.575 378.507 83.2977 378.144C83.031 377.781 82.6044 377.6 82.0177 377.6C81.4417 377.6 80.9617 377.803 80.5777 378.208C80.2044 378.613 80.0177 379.179 80.0177 379.904V384H77.9697ZM91.5601 384.192C90.7601 384.192 90.0507 384.021 89.4321 383.68C88.8134 383.339 88.3281 382.859 87.9761 382.24C87.6241 381.621 87.4481 380.907 87.4481 380.096C87.4481 379.275 87.6187 378.544 87.9601 377.904C88.3121 377.264 88.7921 376.768 89.4001 376.416C90.0187 376.053 90.7441 375.872 91.5761 375.872C92.3547 375.872 93.0427 376.043 93.6401 376.384C94.2374 376.725 94.7014 377.195 95.0321 377.792C95.3734 378.379 95.5441 379.035 95.5441 379.76C95.5441 379.877 95.5387 380 95.5281 380.128C95.5281 380.256 95.5227 380.389 95.5121 380.528H89.4801C89.5227 381.147 89.7361 381.632 90.1201 381.984C90.5147 382.336 90.9894 382.512 91.5441 382.512C91.9601 382.512 92.3067 382.421 92.5841 382.24C92.8721 382.048 93.0854 381.803 93.2241 381.504H95.3041C95.1547 382.005 94.9041 382.464 94.5521 382.88C94.2107 383.285 93.7841 383.605 93.2721 383.84C92.7707 384.075 92.2001 384.192 91.5601 384.192ZM91.5761 377.536C91.0747 377.536 90.6321 377.68 90.2481 377.968C89.8641 378.245 89.6187 378.672 89.5121 379.248H93.4641C93.4321 378.725 93.2401 378.309 92.8881 378C92.5361 377.691 92.0987 377.536 91.5761 377.536ZM97.2666 384V376.064H99.0906L99.2826 377.552C99.5706 377.04 99.9599 376.635 100.451 376.336C100.952 376.027 101.539 375.872 102.211 375.872V378.032H101.635C101.187 378.032 100.787 378.101 100.435 378.24C100.083 378.379 99.8052 378.619 99.6026 378.96C99.4106 379.301 99.3146 379.776 99.3146 380.384V384H97.2666ZM107.326 384.192C106.526 384.192 105.816 384.021 105.198 383.68C104.579 383.339 104.094 382.859 103.742 382.24C103.39 381.621 103.214 380.907 103.214 380.096C103.214 379.275 103.384 378.544 103.726 377.904C104.078 377.264 104.558 376.768 105.166 376.416C105.784 376.053 106.51 375.872 107.342 375.872C108.12 375.872 108.808 376.043 109.406 376.384C110.003 376.725 110.467 377.195 110.798 377.792C111.139 378.379 111.31 379.035 111.31 379.76C111.31 379.877 111.304 380 111.294 380.128C111.294 380.256 111.288 380.389 111.278 380.528H105.246C105.288 381.147 105.502 381.632 105.886 381.984C106.28 382.336 106.755 382.512 107.31 382.512C107.726 382.512 108.072 382.421 108.35 382.24C108.638 382.048 108.851 381.803 108.99 381.504H111.07C110.92 382.005 110.67 382.464 110.318 382.88C109.976 383.285 109.55 383.605 109.038 383.84C108.536 384.075 107.966 384.192 107.326 384.192ZM107.342 377.536C106.84 377.536 106.398 377.68 106.014 377.968C105.63 378.245 105.384 378.672 105.278 379.248H109.23C109.198 378.725 109.006 378.309 108.654 378C108.302 377.691 107.864 377.536 107.342 377.536ZM120.381 384C119.549 384 118.882 383.797 118.381 383.392C117.879 382.987 117.629 382.267 117.629 381.232V377.776H116.269V376.064H117.629L117.869 373.936H119.677V376.064H121.821V377.776H119.677V381.248C119.677 381.632 119.757 381.899 119.917 382.048C120.087 382.187 120.375 382.256 120.781 382.256H121.773V384H120.381ZM127.184 384.192C126.416 384.192 125.723 384.016 125.104 383.664C124.496 383.312 124.011 382.827 123.648 382.208C123.296 381.579 123.12 380.853 123.12 380.032C123.12 379.211 123.301 378.491 123.664 377.872C124.027 377.243 124.512 376.752 125.12 376.4C125.739 376.048 126.432 375.872 127.2 375.872C127.957 375.872 128.64 376.048 129.248 376.4C129.867 376.752 130.352 377.243 130.704 377.872C131.067 378.491 131.248 379.211 131.248 380.032C131.248 380.853 131.067 381.579 130.704 382.208C130.352 382.827 129.867 383.312 129.248 383.664C128.629 384.016 127.941 384.192 127.184 384.192ZM127.184 382.416C127.717 382.416 128.181 382.219 128.576 381.824C128.971 381.419 129.168 380.821 129.168 380.032C129.168 379.243 128.971 378.651 128.576 378.256C128.181 377.851 127.723 377.648 127.2 377.648C126.656 377.648 126.187 377.851 125.792 378.256C125.408 378.651 125.216 379.243 125.216 380.032C125.216 380.821 125.408 381.419 125.792 381.824C126.187 382.219 126.651 382.416 127.184 382.416ZM144.54 376.064V384H142.732L142.572 382.656C142.326 383.125 141.969 383.499 141.5 383.776C141.041 384.053 140.497 384.192 139.868 384.192C138.886 384.192 138.124 383.883 137.58 383.264C137.036 382.645 136.764 381.739 136.764 380.544V376.064H138.812V380.352C138.812 381.035 138.95 381.557 139.228 381.92C139.505 382.283 139.937 382.464 140.524 382.464C141.1 382.464 141.569 382.261 141.932 381.856C142.305 381.451 142.492 380.885 142.492 380.16V376.064H144.54ZM146.626 387.52V376.064H148.45L148.674 377.2C148.93 376.848 149.266 376.539 149.682 376.272C150.109 376.005 150.658 375.872 151.33 375.872C152.077 375.872 152.743 376.053 153.33 376.416C153.917 376.779 154.381 377.275 154.722 377.904C155.063 378.533 155.234 379.248 155.234 380.048C155.234 380.848 155.063 381.563 154.722 382.192C154.381 382.811 153.917 383.301 153.33 383.664C152.743 384.016 152.077 384.192 151.33 384.192C150.733 384.192 150.21 384.08 149.762 383.856C149.314 383.632 148.951 383.317 148.674 382.912V387.52H146.626ZM150.898 382.4C151.549 382.4 152.087 382.181 152.514 381.744C152.941 381.307 153.154 380.741 153.154 380.048C153.154 379.355 152.941 378.784 152.514 378.336C152.087 377.888 151.549 377.664 150.898 377.664C150.237 377.664 149.693 377.888 149.266 378.336C148.85 378.773 148.642 379.339 148.642 380.032C148.642 380.725 148.85 381.296 149.266 381.744C149.693 382.181 150.237 382.4 150.898 382.4ZM157.063 384V372.48H159.111V384H157.063ZM165.012 384.192C164.244 384.192 163.551 384.016 162.932 383.664C162.324 383.312 161.839 382.827 161.476 382.208C161.124 381.579 160.948 380.853 160.948 380.032C160.948 379.211 161.129 378.491 161.492 377.872C161.855 377.243 162.34 376.752 162.948 376.4C163.567 376.048 164.26 375.872 165.028 375.872C165.785 375.872 166.468 376.048 167.076 376.4C167.695 376.752 168.18 377.243 168.532 377.872C168.895 378.491 169.076 379.211 169.076 380.032C169.076 380.853 168.895 381.579 168.532 382.208C168.18 382.827 167.695 383.312 167.076 383.664C166.457 384.016 165.769 384.192 165.012 384.192ZM165.012 382.416C165.545 382.416 166.009 382.219 166.404 381.824C166.799 381.419 166.996 380.821 166.996 380.032C166.996 379.243 166.799 378.651 166.404 378.256C166.009 377.851 165.551 377.648 165.028 377.648C164.484 377.648 164.015 377.851 163.62 378.256C163.236 378.651 163.044 379.243 163.044 380.032C163.044 380.821 163.236 381.419 163.62 381.824C164.015 382.219 164.479 382.416 165.012 382.416ZM173.643 384.192C172.961 384.192 172.401 384.085 171.963 383.872C171.526 383.648 171.201 383.355 170.987 382.992C170.774 382.629 170.667 382.229 170.667 381.792C170.667 381.056 170.955 380.459 171.531 380C172.107 379.541 172.971 379.312 174.123 379.312H176.139V379.12C176.139 378.576 175.985 378.176 175.675 377.92C175.366 377.664 174.982 377.536 174.523 377.536C174.107 377.536 173.745 377.637 173.435 377.84C173.126 378.032 172.934 378.32 172.859 378.704H170.859C170.913 378.128 171.105 377.627 171.435 377.2C171.777 376.773 172.214 376.448 172.747 376.224C173.281 375.989 173.878 375.872 174.539 375.872C175.67 375.872 176.561 376.155 177.211 376.72C177.862 377.285 178.187 378.085 178.187 379.12V384H176.443L176.251 382.72C176.017 383.147 175.686 383.499 175.259 383.776C174.843 384.053 174.305 384.192 173.643 384.192ZM174.107 382.592C174.694 382.592 175.147 382.4 175.467 382.016C175.798 381.632 176.006 381.157 176.091 380.592H174.347C173.803 380.592 173.414 380.693 173.179 380.896C172.945 381.088 172.827 381.328 172.827 381.616C172.827 381.925 172.945 382.165 173.179 382.336C173.414 382.507 173.723 382.592 174.107 382.592ZM183.79 384.192C183.043 384.192 182.376 384.011 181.79 383.648C181.203 383.285 180.739 382.789 180.398 382.16C180.056 381.531 179.886 380.816 179.886 380.016C179.886 379.216 180.056 378.507 180.398 377.888C180.739 377.259 181.203 376.768 181.79 376.416C182.376 376.053 183.043 375.872 183.79 375.872C184.387 375.872 184.91 375.984 185.358 376.208C185.806 376.432 186.168 376.747 186.446 377.152V372.48H188.494V384H186.67L186.446 382.864C186.19 383.216 185.848 383.525 185.422 383.792C185.006 384.059 184.462 384.192 183.79 384.192ZM184.222 382.4C184.883 382.4 185.422 382.181 185.838 381.744C186.264 381.296 186.478 380.725 186.478 380.032C186.478 379.339 186.264 378.773 185.838 378.336C185.422 377.888 184.883 377.664 184.222 377.664C183.571 377.664 183.032 377.883 182.606 378.32C182.179 378.757 181.966 379.323 181.966 380.016C181.966 380.709 182.179 381.28 182.606 381.728C183.032 382.176 183.571 382.4 184.222 382.4ZM194.392 384V376.064H196.216L196.408 377.552C196.696 377.04 197.085 376.635 197.576 376.336C198.077 376.027 198.664 375.872 199.336 375.872V378.032H198.76C198.312 378.032 197.912 378.101 197.56 378.24C197.208 378.379 196.93 378.619 196.728 378.96C196.536 379.301 196.44 379.776 196.44 380.384V384H194.392ZM204.451 384.192C203.651 384.192 202.941 384.021 202.323 383.68C201.704 383.339 201.219 382.859 200.867 382.24C200.515 381.621 200.339 380.907 200.339 380.096C200.339 379.275 200.509 378.544 200.851 377.904C201.203 377.264 201.683 376.768 202.291 376.416C202.909 376.053 203.635 375.872 204.467 375.872C205.245 375.872 205.933 376.043 206.531 376.384C207.128 376.725 207.592 377.195 207.923 377.792C208.264 378.379 208.435 379.035 208.435 379.76C208.435 379.877 208.429 380 208.419 380.128C208.419 380.256 208.413 380.389 208.403 380.528H202.371C202.413 381.147 202.627 381.632 203.011 381.984C203.405 382.336 203.88 382.512 204.435 382.512C204.851 382.512 205.197 382.421 205.475 382.24C205.763 382.048 205.976 381.803 206.115 381.504H208.195C208.045 382.005 207.795 382.464 207.443 382.88C207.101 383.285 206.675 383.605 206.163 383.84C205.661 384.075 205.091 384.192 204.451 384.192ZM204.467 377.536C203.965 377.536 203.523 377.68 203.139 377.968C202.755 378.245 202.509 378.672 202.403 379.248H206.355C206.323 378.725 206.131 378.309 205.779 378C205.427 377.691 204.989 377.536 204.467 377.536ZM213.437 384.192C212.733 384.192 212.115 384.08 211.581 383.856C211.048 383.621 210.621 383.301 210.301 382.896C209.981 382.491 209.789 382.021 209.725 381.488H211.789C211.853 381.797 212.024 382.064 212.301 382.288C212.589 382.501 212.957 382.608 213.405 382.608C213.853 382.608 214.179 382.517 214.381 382.336C214.595 382.155 214.701 381.947 214.701 381.712C214.701 381.371 214.552 381.141 214.253 381.024C213.955 380.896 213.539 380.773 213.005 380.656C212.664 380.581 212.317 380.491 211.965 380.384C211.613 380.277 211.288 380.144 210.989 379.984C210.701 379.813 210.467 379.6 210.285 379.344C210.104 379.077 210.013 378.752 210.013 378.368C210.013 377.664 210.291 377.072 210.845 376.592C211.411 376.112 212.2 375.872 213.213 375.872C214.152 375.872 214.899 376.091 215.453 376.528C216.019 376.965 216.355 377.568 216.461 378.336H214.525C214.408 377.749 213.965 377.456 213.197 377.456C212.813 377.456 212.515 377.531 212.301 377.68C212.099 377.829 211.997 378.016 211.997 378.24C211.997 378.475 212.152 378.661 212.461 378.8C212.771 378.939 213.181 379.067 213.693 379.184C214.248 379.312 214.755 379.456 215.213 379.616C215.683 379.765 216.056 379.995 216.333 380.304C216.611 380.603 216.749 381.035 216.749 381.6C216.76 382.091 216.632 382.533 216.365 382.928C216.099 383.323 215.715 383.632 215.213 383.856C214.712 384.08 214.12 384.192 213.437 384.192ZM222.371 384.192C221.603 384.192 220.91 384.016 220.291 383.664C219.683 383.312 219.198 382.827 218.835 382.208C218.483 381.579 218.307 380.853 218.307 380.032C218.307 379.211 218.489 378.491 218.851 377.872C219.214 377.243 219.699 376.752 220.307 376.4C220.926 376.048 221.619 375.872 222.387 375.872C223.145 375.872 223.827 376.048 224.435 376.4C225.054 376.752 225.539 377.243 225.891 377.872C226.254 378.491 226.435 379.211 226.435 380.032C226.435 380.853 226.254 381.579 225.891 382.208C225.539 382.827 225.054 383.312 224.435 383.664C223.817 384.016 223.129 384.192 222.371 384.192ZM222.371 382.416C222.905 382.416 223.369 382.219 223.763 381.824C224.158 381.419 224.355 380.821 224.355 380.032C224.355 379.243 224.158 378.651 223.763 378.256C223.369 377.851 222.91 377.648 222.387 377.648C221.843 377.648 221.374 377.851 220.979 378.256C220.595 378.651 220.403 379.243 220.403 380.032C220.403 380.821 220.595 381.419 220.979 381.824C221.374 382.219 221.838 382.416 222.371 382.416ZM235.915 376.064V384H234.107L233.947 382.656C233.701 383.125 233.344 383.499 232.875 383.776C232.416 384.053 231.872 384.192 231.243 384.192C230.261 384.192 229.499 383.883 228.955 383.264C228.411 382.645 228.139 381.739 228.139 380.544V376.064H230.187V380.352C230.187 381.035 230.325 381.557 230.603 381.92C230.88 382.283 231.312 382.464 231.899 382.464C232.475 382.464 232.944 382.261 233.307 381.856C233.68 381.451 233.867 380.885 233.867 380.16V376.064H235.915ZM238.001 384V376.064H239.825L240.017 377.552C240.305 377.04 240.694 376.635 241.185 376.336C241.686 376.027 242.273 375.872 242.945 375.872V378.032H242.369C241.921 378.032 241.521 378.101 241.169 378.24C240.817 378.379 240.54 378.619 240.337 378.96C240.145 379.301 240.049 379.776 240.049 380.384V384H238.001ZM248.092 384.192C247.281 384.192 246.567 384.016 245.948 383.664C245.329 383.312 244.839 382.821 244.476 382.192C244.124 381.563 243.948 380.843 243.948 380.032C243.948 379.221 244.124 378.501 244.476 377.872C244.839 377.243 245.329 376.752 245.948 376.4C246.567 376.048 247.281 375.872 248.092 375.872C249.105 375.872 249.959 376.139 250.652 376.672C251.345 377.195 251.788 377.92 251.98 378.848H249.82C249.713 378.464 249.5 378.165 249.18 377.952C248.871 377.728 248.503 377.616 248.076 377.616C247.511 377.616 247.031 377.829 246.636 378.256C246.241 378.683 246.044 379.275 246.044 380.032C246.044 380.789 246.241 381.381 246.636 381.808C247.031 382.235 247.511 382.448 248.076 382.448C248.503 382.448 248.871 382.341 249.18 382.128C249.5 381.915 249.713 381.611 249.82 381.216H251.98C251.788 382.112 251.345 382.832 250.652 383.376C249.959 383.92 249.105 384.192 248.092 384.192ZM257.654 384.192C256.854 384.192 256.144 384.021 255.526 383.68C254.907 383.339 254.422 382.859 254.07 382.24C253.718 381.621 253.542 380.907 253.542 380.096C253.542 379.275 253.712 378.544 254.054 377.904C254.406 377.264 254.886 376.768 255.494 376.416C256.112 376.053 256.838 375.872 257.67 375.872C258.448 375.872 259.136 376.043 259.734 376.384C260.331 376.725 260.795 377.195 261.126 377.792C261.467 378.379 261.638 379.035 261.638 379.76C261.638 379.877 261.632 380 261.622 380.128C261.622 380.256 261.616 380.389 261.606 380.528H255.574C255.616 381.147 255.83 381.632 256.214 381.984C256.608 382.336 257.083 382.512 257.638 382.512C258.054 382.512 258.4 382.421 258.678 382.24C258.966 382.048 259.179 381.803 259.318 381.504H261.398C261.248 382.005 260.998 382.464 260.646 382.88C260.304 383.285 259.878 383.605 259.366 383.84C258.864 384.075 258.294 384.192 257.654 384.192ZM257.67 377.536C257.168 377.536 256.726 377.68 256.342 377.968C255.958 378.245 255.712 378.672 255.606 379.248H259.558C259.526 378.725 259.334 378.309 258.982 378C258.63 377.691 258.192 377.536 257.67 377.536ZM266.64 384.192C265.936 384.192 265.318 384.08 264.784 383.856C264.251 383.621 263.824 383.301 263.504 382.896C263.184 382.491 262.992 382.021 262.928 381.488H264.992C265.056 381.797 265.227 382.064 265.504 382.288C265.792 382.501 266.16 382.608 266.608 382.608C267.056 382.608 267.382 382.517 267.584 382.336C267.798 382.155 267.904 381.947 267.904 381.712C267.904 381.371 267.755 381.141 267.456 381.024C267.158 380.896 266.742 380.773 266.208 380.656C265.867 380.581 265.52 380.491 265.168 380.384C264.816 380.277 264.491 380.144 264.192 379.984C263.904 379.813 263.67 379.6 263.488 379.344C263.307 379.077 263.216 378.752 263.216 378.368C263.216 377.664 263.494 377.072 264.048 376.592C264.614 376.112 265.403 375.872 266.416 375.872C267.355 375.872 268.102 376.091 268.656 376.528C269.222 376.965 269.558 377.568 269.664 378.336H267.728C267.611 377.749 267.168 377.456 266.4 377.456C266.016 377.456 265.718 377.531 265.504 377.68C265.302 377.829 265.2 378.016 265.2 378.24C265.2 378.475 265.355 378.661 265.664 378.8C265.974 378.939 266.384 379.067 266.896 379.184C267.451 379.312 267.958 379.456 268.416 379.616C268.886 379.765 269.259 379.995 269.536 380.304C269.814 380.603 269.952 381.035 269.952 381.6C269.963 382.091 269.835 382.533 269.568 382.928C269.302 383.323 268.918 383.632 268.416 383.856C267.915 384.08 267.323 384.192 266.64 384.192ZM279.115 384C278.283 384 277.616 383.797 277.115 383.392C276.614 382.987 276.363 382.267 276.363 381.232V377.776H275.003V376.064H276.363L276.603 373.936H278.411V376.064H280.555V377.776H278.411V381.248C278.411 381.632 278.491 381.899 278.651 382.048C278.822 382.187 279.11 382.256 279.515 382.256H280.507V384H279.115ZM285.918 384.192C285.15 384.192 284.457 384.016 283.838 383.664C283.23 383.312 282.745 382.827 282.382 382.208C282.03 381.579 281.854 380.853 281.854 380.032C281.854 379.211 282.036 378.491 282.398 377.872C282.761 377.243 283.246 376.752 283.854 376.4C284.473 376.048 285.166 375.872 285.934 375.872C286.692 375.872 287.374 376.048 287.982 376.4C288.601 376.752 289.086 377.243 289.438 377.872C289.801 378.491 289.982 379.211 289.982 380.032C289.982 380.853 289.801 381.579 289.438 382.208C289.086 382.827 288.601 383.312 287.982 383.664C287.364 384.016 286.676 384.192 285.918 384.192ZM285.918 382.416C286.452 382.416 286.916 382.219 287.31 381.824C287.705 381.419 287.902 380.821 287.902 380.032C287.902 379.243 287.705 378.651 287.31 378.256C286.916 377.851 286.457 377.648 285.934 377.648C285.39 377.648 284.921 377.851 284.526 378.256C284.142 378.651 283.95 379.243 283.95 380.032C283.95 380.821 284.142 381.419 284.526 381.824C284.921 382.219 285.385 382.416 285.918 382.416ZM113.646 405C112.814 405 112.148 404.797 111.646 404.392C111.145 403.987 110.894 403.267 110.894 402.232V398.776H109.534V397.064H110.894L111.134 394.936H112.942V397.064H115.086V398.776H112.942V402.248C112.942 402.632 113.022 402.899 113.182 403.048C113.353 403.187 113.641 403.256 114.046 403.256H115.038V405H113.646ZM116.845 405V393.48H118.893V398.28C119.159 397.843 119.517 397.501 119.965 397.256C120.423 397 120.946 396.872 121.533 396.872C122.514 396.872 123.271 397.181 123.805 397.8C124.349 398.419 124.621 399.325 124.621 400.52V405H122.589V400.712C122.589 400.029 122.45 399.507 122.173 399.144C121.906 398.781 121.479 398.6 120.893 398.6C120.317 398.6 119.837 398.803 119.453 399.208C119.079 399.613 118.893 400.179 118.893 400.904V405H116.845ZM130.435 405.192C129.635 405.192 128.926 405.021 128.307 404.68C127.688 404.339 127.203 403.859 126.851 403.24C126.499 402.621 126.323 401.907 126.323 401.096C126.323 400.275 126.494 399.544 126.835 398.904C127.187 398.264 127.667 397.768 128.275 397.416C128.894 397.053 129.619 396.872 130.451 396.872C131.23 396.872 131.918 397.043 132.515 397.384C133.112 397.725 133.576 398.195 133.907 398.792C134.248 399.379 134.419 400.035 134.419 400.76C134.419 400.877 134.414 401 134.403 401.128C134.403 401.256 134.398 401.389 134.387 401.528H128.355C128.398 402.147 128.611 402.632 128.995 402.984C129.39 403.336 129.864 403.512 130.419 403.512C130.835 403.512 131.182 403.421 131.459 403.24C131.747 403.048 131.96 402.803 132.099 402.504H134.179C134.03 403.005 133.779 403.464 133.427 403.88C133.086 404.285 132.659 404.605 132.147 404.84C131.646 405.075 131.075 405.192 130.435 405.192ZM130.451 398.536C129.95 398.536 129.507 398.68 129.123 398.968C128.739 399.245 128.494 399.672 128.387 400.248H132.339C132.307 399.725 132.115 399.309 131.763 399C131.411 398.691 130.974 398.536 130.451 398.536ZM143.602 405.192C142.855 405.192 142.189 405.011 141.602 404.648C141.015 404.285 140.551 403.789 140.21 403.16C139.869 402.531 139.698 401.816 139.698 401.016C139.698 400.216 139.869 399.507 140.21 398.888C140.551 398.259 141.015 397.768 141.602 397.416C142.189 397.053 142.855 396.872 143.602 396.872C144.199 396.872 144.722 396.984 145.17 397.208C145.618 397.432 145.981 397.747 146.258 398.152V393.48H148.306V405H146.482L146.258 403.864C146.002 404.216 145.661 404.525 145.234 404.792C144.818 405.059 144.274 405.192 143.602 405.192ZM144.034 403.4C144.695 403.4 145.234 403.181 145.65 402.744C146.077 402.296 146.29 401.725 146.29 401.032C146.29 400.339 146.077 399.773 145.65 399.336C145.234 398.888 144.695 398.664 144.034 398.664C143.383 398.664 142.845 398.883 142.418 399.32C141.991 399.757 141.778 400.323 141.778 401.016C141.778 401.709 141.991 402.28 142.418 402.728C142.845 403.176 143.383 403.4 144.034 403.4ZM153.128 405.192C152.445 405.192 151.885 405.085 151.448 404.872C151.01 404.648 150.685 404.355 150.472 403.992C150.258 403.629 150.152 403.229 150.152 402.792C150.152 402.056 150.44 401.459 151.016 401C151.592 400.541 152.456 400.312 153.608 400.312H155.624V400.12C155.624 399.576 155.469 399.176 155.16 398.92C154.85 398.664 154.466 398.536 154.008 398.536C153.592 398.536 153.229 398.637 152.92 398.84C152.61 399.032 152.418 399.32 152.344 399.704H150.344C150.397 399.128 150.589 398.627 150.92 398.2C151.261 397.773 151.698 397.448 152.232 397.224C152.765 396.989 153.362 396.872 154.024 396.872C155.154 396.872 156.045 397.155 156.696 397.72C157.346 398.285 157.672 399.085 157.672 400.12V405H155.928L155.736 403.72C155.501 404.147 155.17 404.499 154.744 404.776C154.328 405.053 153.789 405.192 153.128 405.192ZM153.592 403.592C154.178 403.592 154.632 403.4 154.952 403.016C155.282 402.632 155.49 402.157 155.576 401.592H153.832C153.288 401.592 152.898 401.693 152.664 401.896C152.429 402.088 152.312 402.328 152.312 402.616C152.312 402.925 152.429 403.165 152.664 403.336C152.898 403.507 153.208 403.592 153.592 403.592ZM163.053 405C162.221 405 161.554 404.797 161.053 404.392C160.551 403.987 160.301 403.267 160.301 402.232V398.776H158.941V397.064H160.301L160.541 394.936H162.349V397.064H164.493V398.776H162.349V402.248C162.349 402.632 162.429 402.899 162.589 403.048C162.759 403.187 163.047 403.256 163.453 403.256H164.445V405H163.053ZM168.987 405.192C168.304 405.192 167.744 405.085 167.307 404.872C166.87 404.648 166.544 404.355 166.331 403.992C166.118 403.629 166.011 403.229 166.011 402.792C166.011 402.056 166.299 401.459 166.875 401C167.451 400.541 168.315 400.312 169.467 400.312H171.483V400.12C171.483 399.576 171.328 399.176 171.019 398.92C170.71 398.664 170.326 398.536 169.867 398.536C169.451 398.536 169.088 398.637 168.779 398.84C168.47 399.032 168.278 399.32 168.203 399.704H166.203C166.256 399.128 166.448 398.627 166.779 398.2C167.12 397.773 167.558 397.448 168.091 397.224C168.624 396.989 169.222 396.872 169.883 396.872C171.014 396.872 171.904 397.155 172.555 397.72C173.206 398.285 173.531 399.085 173.531 400.12V405H171.787L171.595 403.72C171.36 404.147 171.03 404.499 170.603 404.776C170.187 405.053 169.648 405.192 168.987 405.192ZM169.451 403.592C170.038 403.592 170.491 403.4 170.811 403.016C171.142 402.632 171.35 402.157 171.435 401.592H169.691C169.147 401.592 168.758 401.693 168.523 401.896C168.288 402.088 168.171 402.328 168.171 402.616C168.171 402.925 168.288 403.165 168.523 403.336C168.758 403.507 169.067 403.592 169.451 403.592ZM180.189 405.192C179.592 405.192 179.069 405.08 178.621 404.856C178.173 404.632 177.811 404.317 177.533 403.912L177.309 405H175.485V393.48H177.533V398.2C177.789 397.848 178.125 397.539 178.541 397.272C178.968 397.005 179.517 396.872 180.189 396.872C180.936 396.872 181.603 397.053 182.189 397.416C182.776 397.779 183.24 398.275 183.581 398.904C183.923 399.533 184.093 400.248 184.093 401.048C184.093 401.848 183.923 402.563 183.581 403.192C183.24 403.811 182.776 404.301 182.189 404.664C181.603 405.016 180.936 405.192 180.189 405.192ZM179.757 403.4C180.408 403.4 180.947 403.181 181.373 402.744C181.8 402.307 182.013 401.741 182.013 401.048C182.013 400.355 181.8 399.784 181.373 399.336C180.947 398.888 180.408 398.664 179.757 398.664C179.096 398.664 178.552 398.888 178.125 399.336C177.709 399.773 177.501 400.339 177.501 401.032C177.501 401.725 177.709 402.296 178.125 402.744C178.552 403.181 179.096 403.4 179.757 403.4ZM188.659 405.192C187.976 405.192 187.416 405.085 186.979 404.872C186.541 404.648 186.216 404.355 186.003 403.992C185.789 403.629 185.683 403.229 185.683 402.792C185.683 402.056 185.971 401.459 186.547 401C187.123 400.541 187.987 400.312 189.139 400.312H191.155V400.12C191.155 399.576 191 399.176 190.691 398.92C190.381 398.664 189.997 398.536 189.539 398.536C189.123 398.536 188.76 398.637 188.451 398.84C188.141 399.032 187.949 399.32 187.875 399.704H185.875C185.928 399.128 186.12 398.627 186.451 398.2C186.792 397.773 187.229 397.448 187.763 397.224C188.296 396.989 188.893 396.872 189.555 396.872C190.685 396.872 191.576 397.155 192.227 397.72C192.877 398.285 193.203 399.085 193.203 400.12V405H191.459L191.267 403.72C191.032 404.147 190.701 404.499 190.275 404.776C189.859 405.053 189.32 405.192 188.659 405.192ZM189.123 403.592C189.709 403.592 190.163 403.4 190.483 403.016C190.813 402.632 191.021 402.157 191.107 401.592H189.363C188.819 401.592 188.429 401.693 188.195 401.896C187.96 402.088 187.843 402.328 187.843 402.616C187.843 402.925 187.96 403.165 188.195 403.336C188.429 403.507 188.739 403.592 189.123 403.592ZM198.437 405.192C197.733 405.192 197.115 405.08 196.581 404.856C196.048 404.621 195.621 404.301 195.301 403.896C194.981 403.491 194.789 403.021 194.725 402.488H196.789C196.853 402.797 197.024 403.064 197.301 403.288C197.589 403.501 197.957 403.608 198.405 403.608C198.853 403.608 199.179 403.517 199.381 403.336C199.595 403.155 199.701 402.947 199.701 402.712C199.701 402.371 199.552 402.141 199.253 402.024C198.955 401.896 198.539 401.773 198.005 401.656C197.664 401.581 197.317 401.491 196.965 401.384C196.613 401.277 196.288 401.144 195.989 400.984C195.701 400.813 195.467 400.6 195.285 400.344C195.104 400.077 195.013 399.752 195.013 399.368C195.013 398.664 195.291 398.072 195.845 397.592C196.411 397.112 197.2 396.872 198.213 396.872C199.152 396.872 199.899 397.091 200.453 397.528C201.019 397.965 201.355 398.568 201.461 399.336H199.525C199.408 398.749 198.965 398.456 198.197 398.456C197.813 398.456 197.515 398.531 197.301 398.68C197.099 398.829 196.997 399.016 196.997 399.24C196.997 399.475 197.152 399.661 197.461 399.8C197.771 399.939 198.181 400.067 198.693 400.184C199.248 400.312 199.755 400.456 200.213 400.616C200.683 400.765 201.056 400.995 201.333 401.304C201.611 401.603 201.749 402.035 201.749 402.6C201.76 403.091 201.632 403.533 201.365 403.928C201.099 404.323 200.715 404.632 200.213 404.856C199.712 405.08 199.12 405.192 198.437 405.192ZM207.419 405.192C206.619 405.192 205.91 405.021 205.291 404.68C204.673 404.339 204.187 403.859 203.835 403.24C203.483 402.621 203.307 401.907 203.307 401.096C203.307 400.275 203.478 399.544 203.819 398.904C204.171 398.264 204.651 397.768 205.259 397.416C205.878 397.053 206.603 396.872 207.435 396.872C208.214 396.872 208.902 397.043 209.499 397.384C210.097 397.725 210.561 398.195 210.891 398.792C211.233 399.379 211.403 400.035 211.403 400.76C211.403 400.877 211.398 401 211.387 401.128C211.387 401.256 211.382 401.389 211.371 401.528H205.339C205.382 402.147 205.595 402.632 205.979 402.984C206.374 403.336 206.849 403.512 207.403 403.512C207.819 403.512 208.166 403.421 208.443 403.24C208.731 403.048 208.945 402.803 209.083 402.504H211.163C211.014 403.005 210.763 403.464 210.411 403.88C210.07 404.285 209.643 404.605 209.131 404.84C208.63 405.075 208.059 405.192 207.419 405.192ZM207.435 398.536C206.934 398.536 206.491 398.68 206.107 398.968C205.723 399.245 205.478 399.672 205.371 400.248H209.323C209.291 399.725 209.099 399.309 208.747 399C208.395 398.691 207.958 398.536 207.435 398.536ZM214.006 405.112C213.633 405.112 213.323 404.995 213.078 404.76C212.843 404.525 212.726 404.243 212.726 403.912C212.726 403.571 212.843 403.283 213.078 403.048C213.323 402.813 213.633 402.696 214.006 402.696C214.379 402.696 214.683 402.813 214.918 403.048C215.163 403.283 215.286 403.571 215.286 403.912C215.286 404.243 215.163 404.525 214.918 404.76C214.683 404.995 214.379 405.112 214.006 405.112Z" fill="white"/>
<path d="M233.654 187.548L219.879 184.167C219.229 182.383 218.479 180.596 217.635 178.823L224.81 166.864C225.847 165.136 225.574 162.921 224.147 161.497L205.503 142.853C204.079 141.426 201.864 141.153 200.136 142.19L188.177 149.365C186.404 148.521 184.617 147.771 182.833 147.121L179.452 133.346C178.969 131.383 177.208 130 175.184 130H148.816C146.792 130 145.031 131.383 144.548 133.346L141.167 147.121C139.383 147.771 137.596 148.521 135.823 149.365L123.864 142.19C122.136 141.153 119.924 141.426 118.497 142.853L99.8525 161.497C98.4258 162.921 98.1533 165.136 99.1904 166.864L106.365 178.823C105.521 180.596 104.771 182.383 104.121 184.167L90.3457 187.548C88.3828 188.031 87 189.792 87 191.816V218.184C87 220.208 88.3828 221.969 90.3457 222.452L104.121 225.833C104.771 227.617 105.521 229.404 106.365 231.177L99.1904 243.136C98.1533 244.864 98.4258 247.079 99.8525 248.503L118.497 267.147C119.924 268.574 122.136 268.847 123.864 267.81L135.823 260.635C137.596 261.479 139.383 262.229 141.167 262.879L144.422 276.142L144.548 276.654C145.031 278.617 146.792 280 148.816 280L162.879 265.938L175.184 280C177.208 280 178.969 278.617 179.452 276.654L179.578 276.142L182.833 262.879C184.617 262.229 186.404 261.479 188.177 260.635L200.136 267.81C201.864 268.847 204.076 268.574 205.503 267.147L224.147 248.503C225.574 247.079 225.847 244.864 224.81 243.136L217.635 231.177C218.479 229.404 219.229 227.617 219.879 225.833L233.654 222.452C235.617 221.969 237 220.208 237 218.184V191.816C237 189.792 235.617 188.031 233.654 187.548Z" fill="#7584F2"/>
<path d="M233.654 187.548L219.879 184.167C219.229 182.383 218.479 180.596 217.635 178.823L224.81 166.864C225.847 165.136 225.574 162.921 224.147 161.497L205.503 142.853C204.079 141.426 201.864 141.153 200.136 142.19L188.177 149.365C186.404 148.521 184.617 147.771 182.833 147.121L179.452 133.346C178.969 131.383 177.208 130 175.184 130H162V266.816L162.879 265.938L175.184 280C177.208 280 178.969 278.617 179.452 276.654L179.578 276.142L182.833 262.879C184.617 262.229 186.404 261.479 188.177 260.635L200.136 267.81C201.864 268.847 204.076 268.574 205.503 267.147L224.147 248.503C225.574 247.079 225.847 244.864 224.81 243.136L217.635 231.177C218.479 229.404 219.229 227.617 219.879 225.833L233.654 222.452C235.617 221.969 237 220.208 237 218.184V191.816C237 189.792 235.617 188.031 233.654 187.548Z" fill="#7584F2"/>
<path d="M175.184 233.198H148.816C146.391 233.198 144.422 235.164 144.422 237.593V276.142L144.548 276.654C145.031 278.617 146.792 280 148.816 280H175.184C177.208 280 178.969 278.617 179.452 276.654L179.578 276.142V237.593C179.578 235.164 177.609 233.198 175.184 233.198Z" fill="#FABE2C"/>
<path d="M175.184 233.198H162V280H175.184C177.208 280 178.969 278.617 179.452 276.654L179.578 276.142V237.593C179.578 235.164 177.609 233.198 175.184 233.198Z" fill="#FF9F00"/>
<path d="M162 244.551C140.192 244.551 122.449 226.808 122.449 205C122.449 196.982 124.846 189.255 129.381 182.654C133.804 176.215 139.954 171.264 147.163 168.337C148.518 167.787 150.058 167.947 151.271 168.763C152.484 169.58 153.211 170.947 153.211 172.409V202.648L162 208.508L170.789 202.648V172.409C170.789 170.946 171.516 169.58 172.729 168.763C173.942 167.947 175.482 167.787 176.837 168.337C184.046 171.264 190.196 176.215 194.619 182.653C199.154 189.255 201.551 196.982 201.551 205C201.551 226.808 183.808 244.551 162 244.551ZM175.184 205H175.187H175.184Z" fill="#FDD929"/>
<path d="M201.551 205C201.551 196.982 199.154 189.254 194.619 182.653C190.196 176.215 184.046 171.264 176.837 168.337C175.482 167.787 173.942 167.946 172.729 168.763C171.516 169.58 170.789 170.946 170.789 172.409V202.648L162 208.507V244.55C183.808 244.55 201.551 226.808 201.551 205Z" fill="#FABE2C"/>
<path d="M100.306 82.9062V64.7062H103.634V82.9062H100.306ZM107.084 82.9062V70.0102H110.022L110.282 72.1942C110.68 71.4316 111.252 70.8249 111.998 70.3742C112.76 69.9236 113.653 69.6982 114.676 69.6982C116.27 69.6982 117.51 70.2009 118.394 71.2062C119.278 72.2116 119.72 73.6849 119.72 75.6262V82.9062H116.392V75.9382C116.392 74.8289 116.166 73.9796 115.716 73.3902C115.265 72.8009 114.563 72.5062 113.61 72.5062C112.674 72.5062 111.902 72.8356 111.296 73.4942C110.706 74.1529 110.412 75.0716 110.412 76.2502V82.9062H107.084ZM128.83 83.2183C127.617 83.2183 126.533 82.9236 125.58 82.3342C124.627 81.7449 123.873 80.9389 123.318 79.9162C122.763 78.8936 122.486 77.7322 122.486 76.4322C122.486 75.1322 122.763 73.9796 123.318 72.9742C123.873 71.9516 124.627 71.1542 125.58 70.5822C126.533 69.9929 127.617 69.6982 128.83 69.6982C129.801 69.6982 130.65 69.8802 131.378 70.2442C132.106 70.6082 132.695 71.1196 133.146 71.7782V64.1862H136.474V82.9062H133.51L133.146 81.0602C132.73 81.6322 132.175 82.1349 131.482 82.5682C130.806 83.0016 129.922 83.2183 128.83 83.2183ZM129.532 80.3062C130.607 80.3062 131.482 79.9509 132.158 79.2402C132.851 78.5122 133.198 77.5849 133.198 76.4582C133.198 75.3316 132.851 74.4129 132.158 73.7022C131.482 72.9742 130.607 72.6102 129.532 72.6102C128.475 72.6102 127.599 72.9656 126.906 73.6762C126.213 74.3869 125.866 75.3056 125.866 76.4322C125.866 77.5589 126.213 78.4862 126.906 79.2142C127.599 79.9422 128.475 80.3062 129.532 80.3062ZM146.051 83.2183C144.803 83.2183 143.676 82.9322 142.671 82.3602C141.683 81.7882 140.894 80.9996 140.305 79.9942C139.733 78.9716 139.447 77.7929 139.447 76.4582C139.447 75.1236 139.742 73.9536 140.331 72.9482C140.92 71.9256 141.709 71.1282 142.697 70.5562C143.702 69.9842 144.829 69.6982 146.077 69.6982C147.308 69.6982 148.417 69.9842 149.405 70.5562C150.41 71.1282 151.199 71.9256 151.771 72.9482C152.36 73.9536 152.655 75.1236 152.655 76.4582C152.655 77.7929 152.36 78.9716 151.771 79.9942C151.199 80.9996 150.41 81.7882 149.405 82.3602C148.4 82.9322 147.282 83.2183 146.051 83.2183ZM146.051 80.3322C146.918 80.3322 147.672 80.0116 148.313 79.3702C148.954 78.7116 149.275 77.7409 149.275 76.4582C149.275 75.1756 148.954 74.2136 148.313 73.5722C147.672 72.9136 146.926 72.5842 146.077 72.5842C145.193 72.5842 144.43 72.9136 143.789 73.5722C143.165 74.2136 142.853 75.1756 142.853 76.4582C142.853 77.7409 143.165 78.7116 143.789 79.3702C144.43 80.0116 145.184 80.3322 146.051 80.3322ZM155.344 76.7702V73.9882H166.238V76.7702H155.344ZM169.419 82.9062V64.7062H181.301V67.3842H172.747V72.3762H180.521V74.9762H172.747V80.2282H181.301V82.9062H169.419ZM190.301 83.2183C189.087 83.2183 188.004 82.9236 187.051 82.3342C186.097 81.7449 185.343 80.9389 184.789 79.9162C184.234 78.8936 183.957 77.7322 183.957 76.4322C183.957 75.1322 184.234 73.9796 184.789 72.9742C185.343 71.9516 186.097 71.1542 187.051 70.5822C188.004 69.9929 189.087 69.6982 190.301 69.6982C191.271 69.6982 192.121 69.8802 192.849 70.2442C193.577 70.6082 194.166 71.1196 194.617 71.7782V64.1862H197.945V82.9062H194.981L194.617 81.0602C194.201 81.6322 193.646 82.1349 192.953 82.5682C192.277 83.0016 191.393 83.2183 190.301 83.2183ZM191.003 80.3062C192.077 80.3062 192.953 79.9509 193.629 79.2402C194.322 78.5122 194.669 77.5849 194.669 76.4582C194.669 75.3316 194.322 74.4129 193.629 73.7022C192.953 72.9742 192.077 72.6102 191.003 72.6102C189.945 72.6102 189.07 72.9656 188.377 73.6762C187.683 74.3869 187.337 75.3056 187.337 76.4322C187.337 77.5589 187.683 78.4862 188.377 79.2142C189.07 79.9422 189.945 80.3062 191.003 80.3062ZM213.762 70.0102V82.9062H210.824L210.564 80.7222C210.165 81.4849 209.584 82.0916 208.822 82.5422C208.076 82.9929 207.192 83.2183 206.17 83.2183C204.575 83.2183 203.336 82.7156 202.452 81.7102C201.568 80.7049 201.126 79.2316 201.126 77.2902V70.0102H204.454V76.9782C204.454 78.0876 204.679 78.9369 205.13 79.5262C205.58 80.1156 206.282 80.4102 207.236 80.4102C208.172 80.4102 208.934 80.0809 209.524 79.4222C210.13 78.7636 210.434 77.8449 210.434 76.6662V70.0102H213.762Z" fill="white"/>
<path d="M156.5 59.625C156.32 59.625 156.144 59.5782 155.988 59.4891L146.961 54.3296C146.882 54.2843 146.794 54.2605 146.703 54.2605C146.612 54.2605 146.523 54.2844 146.445 54.3298C146.367 54.3751 146.301 54.4403 146.256 54.5188C146.211 54.5973 146.187 54.6863 146.188 54.7769V59.625C146.187 59.8091 146.236 59.9898 146.33 60.1485C146.423 60.3072 146.557 60.438 146.718 60.5274L155.999 65.6836C156.152 65.7687 156.325 65.8134 156.5 65.8134C156.675 65.8134 156.848 65.7687 157.001 65.6836L166.282 60.5274C166.443 60.438 166.577 60.3072 166.67 60.1485C166.764 59.9898 166.813 59.8091 166.812 59.625V54.7769C166.813 54.6863 166.789 54.5973 166.744 54.5188C166.698 54.4403 166.633 54.3751 166.555 54.3298C166.477 54.2844 166.388 54.2605 166.297 54.2605C166.206 54.2605 166.117 54.2843 166.039 54.3296L157.012 59.4891C156.856 59.5782 156.68 59.625 156.5 59.625Z" fill="white"/>
<path d="M171.964 48.1845V48.1774C171.947 48.014 171.892 47.8568 171.802 47.7192C171.712 47.5815 171.591 47.4672 171.448 47.3859L157.011 39.1359C156.855 39.0469 156.678 39 156.499 39C156.319 39 156.143 39.0469 155.987 39.1359L141.55 47.3859C141.392 47.4762 141.261 47.6065 141.17 47.7637C141.078 47.9209 141.03 48.0994 141.03 48.2812C141.03 48.463 141.078 48.6415 141.17 48.7987C141.261 48.9559 141.392 49.0862 141.55 49.1764L155.987 57.4264C156.143 57.5155 156.319 57.5624 156.499 57.5624C156.678 57.5624 156.855 57.5155 157.011 57.4264L169.713 50.1684C169.733 50.157 169.755 50.1511 169.778 50.1511C169.8 50.1511 169.823 50.1571 169.842 50.1685C169.862 50.1799 169.878 50.1962 169.889 50.2159C169.901 50.2356 169.907 50.2579 169.906 50.2805V59.5959C169.906 60.1509 170.333 60.6272 170.888 60.6549C171.028 60.6616 171.167 60.64 171.298 60.5912C171.428 60.5425 171.548 60.4677 171.649 60.3714C171.75 60.2751 171.831 60.1593 171.886 60.031C171.941 59.9027 171.969 59.7645 171.969 59.6249V48.2812C171.969 48.2489 171.967 48.2166 171.964 48.1845Z" fill="white"/>
<defs>
<linearGradient id="paint0_linear" x1="162.5" y1="0" x2="162.5" y2="532" gradientUnits="userSpaceOnUse">
<stop stop-color="#1D4EFF"/>
<stop offset="1" stop-color="#150A59"/>
</linearGradient>
</defs>
</svg>
