<svg width="325" height="532" viewBox="0 0 325 532" fill="none" xmlns="http://www.w3.org/2000/svg">
<rect width="325" height="532" rx="15" fill="url(#paint0_linear)"/>
<path d="M52.1271 380V368.8H54.1751L59.4391 376.688V368.8H61.4871V380H59.4391L54.1751 372.128V380H52.1271ZM67.4663 380.192C66.6663 380.192 65.957 380.021 65.3383 379.68C64.7196 379.339 64.2343 378.859 63.8823 378.24C63.5303 377.621 63.3543 376.907 63.3543 376.096C63.3543 375.275 63.525 374.544 63.8663 373.904C64.2183 373.264 64.6983 372.768 65.3063 372.416C65.925 372.053 66.6503 371.872 67.4823 371.872C68.261 371.872 68.949 372.043 69.5463 372.384C70.1436 372.725 70.6076 373.195 70.9383 373.792C71.2796 374.379 71.4503 375.035 71.4503 375.76C71.4503 375.877 71.445 376 71.4343 376.128C71.4343 376.256 71.429 376.389 71.4183 376.528H65.3863C65.429 377.147 65.6423 377.632 66.0263 377.984C66.421 378.336 66.8956 378.512 67.4503 378.512C67.8663 378.512 68.213 378.421 68.4903 378.24C68.7783 378.048 68.9916 377.803 69.1303 377.504H71.2103C71.061 378.005 70.8103 378.464 70.4583 378.88C70.117 379.285 69.6903 379.605 69.1783 379.84C68.677 380.075 68.1063 380.192 67.4663 380.192ZM67.4823 373.536C66.981 373.536 66.5383 373.68 66.1543 373.968C65.7703 374.245 65.525 374.672 65.4183 375.248H69.3703C69.3383 374.725 69.1463 374.309 68.7943 374C68.4423 373.691 68.005 373.536 67.4823 373.536ZM77.0288 380.192C76.2288 380.192 75.5195 380.021 74.9008 379.68C74.2821 379.339 73.7968 378.859 73.4448 378.24C73.0928 377.621 72.9168 376.907 72.9168 376.096C72.9168 375.275 73.0875 374.544 73.4288 373.904C73.7808 373.264 74.2608 372.768 74.8688 372.416C75.4875 372.053 76.2128 371.872 77.0448 371.872C77.8235 371.872 78.5115 372.043 79.1088 372.384C79.7061 372.725 80.1701 373.195 80.5008 373.792C80.8421 374.379 81.0128 375.035 81.0128 375.76C81.0128 375.877 81.0075 376 80.9968 376.128C80.9968 376.256 80.9915 376.389 80.9808 376.528H74.9488C74.9915 377.147 75.2048 377.632 75.5888 377.984C75.9835 378.336 76.4581 378.512 77.0128 378.512C77.4288 378.512 77.7755 378.421 78.0528 378.24C78.3408 378.048 78.5541 377.803 78.6928 377.504H80.7728C80.6235 378.005 80.3728 378.464 80.0208 378.88C79.6795 379.285 79.2528 379.605 78.7408 379.84C78.2395 380.075 77.6688 380.192 77.0288 380.192ZM77.0448 373.536C76.5435 373.536 76.1008 373.68 75.7168 373.968C75.3328 374.245 75.0875 374.672 74.9808 375.248H78.9328C78.9008 374.725 78.7088 374.309 78.3568 374C78.0048 373.691 77.5675 373.536 77.0448 373.536ZM86.3833 380.192C85.6366 380.192 84.97 380.011 84.3833 379.648C83.7966 379.285 83.3326 378.789 82.9913 378.16C82.65 377.531 82.4793 376.816 82.4793 376.016C82.4793 375.216 82.65 374.507 82.9913 373.888C83.3326 373.259 83.7966 372.768 84.3833 372.416C84.97 372.053 85.6366 371.872 86.3833 371.872C86.9806 371.872 87.5033 371.984 87.9513 372.208C88.3993 372.432 88.762 372.747 89.0393 373.152V368.48H91.0873V380H89.2633L89.0393 378.864C88.7833 379.216 88.442 379.525 88.0153 379.792C87.5993 380.059 87.0553 380.192 86.3833 380.192ZM86.8153 378.4C87.4766 378.4 88.0153 378.181 88.4313 377.744C88.858 377.296 89.0713 376.725 89.0713 376.032C89.0713 375.339 88.858 374.773 88.4313 374.336C88.0153 373.888 87.4766 373.664 86.8153 373.664C86.1646 373.664 85.626 373.883 85.1993 374.32C84.7726 374.757 84.5593 375.323 84.5593 376.016C84.5593 376.709 84.7726 377.28 85.1993 377.728C85.626 378.176 86.1646 378.4 86.8153 378.4ZM96.9853 380V368.48H99.0333V373.28C99.3 372.843 99.6573 372.501 100.105 372.256C100.564 372 101.087 371.872 101.673 371.872C102.655 371.872 103.412 372.181 103.945 372.8C104.489 373.419 104.761 374.325 104.761 375.52V380H102.729V375.712C102.729 375.029 102.591 374.507 102.313 374.144C102.047 373.781 101.62 373.6 101.033 373.6C100.457 373.6 99.9773 373.803 99.5933 374.208C99.22 374.613 99.0333 375.179 99.0333 375.904V380H96.9853ZM110.576 380.192C109.776 380.192 109.066 380.021 108.448 379.68C107.829 379.339 107.344 378.859 106.992 378.24C106.64 377.621 106.464 376.907 106.464 376.096C106.464 375.275 106.634 374.544 106.976 373.904C107.328 373.264 107.808 372.768 108.416 372.416C109.034 372.053 109.76 371.872 110.592 371.872C111.37 371.872 112.058 372.043 112.656 372.384C113.253 372.725 113.717 373.195 114.048 373.792C114.389 374.379 114.56 375.035 114.56 375.76C114.56 375.877 114.554 376 114.544 376.128C114.544 376.256 114.538 376.389 114.528 376.528H108.496C108.538 377.147 108.752 377.632 109.136 377.984C109.53 378.336 110.005 378.512 110.56 378.512C110.976 378.512 111.322 378.421 111.6 378.24C111.888 378.048 112.101 377.803 112.24 377.504H114.32C114.17 378.005 113.92 378.464 113.568 378.88C113.226 379.285 112.8 379.605 112.288 379.84C111.786 380.075 111.216 380.192 110.576 380.192ZM110.592 373.536C110.09 373.536 109.648 373.68 109.264 373.968C108.88 374.245 108.634 374.672 108.528 375.248H112.48C112.448 374.725 112.256 374.309 111.904 374C111.552 373.691 111.114 373.536 110.592 373.536ZM116.282 380V368.48H118.33V380H116.282ZM120.423 383.52V372.064H122.247L122.471 373.2C122.727 372.848 123.063 372.539 123.479 372.272C123.905 372.005 124.455 371.872 125.127 371.872C125.873 371.872 126.54 372.053 127.127 372.416C127.713 372.779 128.177 373.275 128.519 373.904C128.86 374.533 129.031 375.248 129.031 376.048C129.031 376.848 128.86 377.563 128.519 378.192C128.177 378.811 127.713 379.301 127.127 379.664C126.54 380.016 125.873 380.192 125.127 380.192C124.529 380.192 124.007 380.08 123.559 379.856C123.111 379.632 122.748 379.317 122.471 378.912V383.52H120.423ZM124.695 378.4C125.345 378.4 125.884 378.181 126.311 377.744C126.737 377.307 126.951 376.741 126.951 376.048C126.951 375.355 126.737 374.784 126.311 374.336C125.884 373.888 125.345 373.664 124.695 373.664C124.033 373.664 123.489 373.888 123.063 374.336C122.647 374.773 122.439 375.339 122.439 376.032C122.439 376.725 122.647 377.296 123.063 377.744C123.489 378.181 124.033 378.4 124.695 378.4ZM135.041 380V373.776H133.953V372.064H135.041V371.136C135.041 370.176 135.281 369.493 135.761 369.088C136.251 368.683 136.913 368.48 137.745 368.48H138.625V370.224H138.065C137.713 370.224 137.462 370.293 137.313 370.432C137.163 370.571 137.089 370.805 137.089 371.136V372.064H142.209V380H140.161V373.776H137.089V380H135.041ZM141.201 370.928C140.827 370.928 140.518 370.816 140.273 370.592C140.038 370.368 139.921 370.085 139.921 369.744C139.921 369.403 140.038 369.125 140.273 368.912C140.518 368.688 140.827 368.576 141.201 368.576C141.574 368.576 141.878 368.688 142.113 368.912C142.358 369.125 142.481 369.403 142.481 369.744C142.481 370.085 142.358 370.368 142.113 370.592C141.878 370.816 141.574 370.928 141.201 370.928ZM144.376 380V372.064H146.184L146.344 373.408C146.589 372.939 146.941 372.565 147.4 372.288C147.869 372.011 148.419 371.872 149.048 371.872C150.029 371.872 150.792 372.181 151.336 372.8C151.88 373.419 152.152 374.325 152.152 375.52V380H150.104V375.712C150.104 375.029 149.965 374.507 149.688 374.144C149.411 373.781 148.979 373.6 148.392 373.6C147.816 373.6 147.341 373.803 146.968 374.208C146.605 374.613 146.424 375.179 146.424 375.904V380H144.376ZM157.758 380.192C157.012 380.192 156.345 380.011 155.758 379.648C155.172 379.285 154.708 378.789 154.366 378.16C154.025 377.531 153.854 376.816 153.854 376.016C153.854 375.216 154.025 374.507 154.366 373.888C154.708 373.259 155.172 372.768 155.758 372.416C156.345 372.053 157.012 371.872 157.758 371.872C158.356 371.872 158.878 371.984 159.326 372.208C159.774 372.432 160.137 372.747 160.414 373.152V368.48H162.462V380H160.638L160.414 378.864C160.158 379.216 159.817 379.525 159.39 379.792C158.974 380.059 158.43 380.192 157.758 380.192ZM158.19 378.4C158.852 378.4 159.39 378.181 159.806 377.744C160.233 377.296 160.446 376.725 160.446 376.032C160.446 375.339 160.233 374.773 159.806 374.336C159.39 373.888 158.852 373.664 158.19 373.664C157.54 373.664 157.001 373.883 156.574 374.32C156.148 374.757 155.934 375.323 155.934 376.016C155.934 376.709 156.148 377.28 156.574 377.728C157.001 378.176 157.54 378.4 158.19 378.4ZM165.652 370.832C165.278 370.832 164.969 370.72 164.724 370.496C164.489 370.272 164.372 369.989 164.372 369.648C164.372 369.307 164.489 369.029 164.724 368.816C164.969 368.592 165.278 368.48 165.652 368.48C166.025 368.48 166.329 368.592 166.564 368.816C166.809 369.029 166.932 369.307 166.932 369.648C166.932 369.989 166.809 370.272 166.564 370.496C166.329 370.72 166.025 370.832 165.652 370.832ZM164.628 380V372.064H166.676V380H164.628ZM168.813 380V372.064H170.621L170.781 373.408C171.027 372.939 171.379 372.565 171.837 372.288C172.307 372.011 172.856 371.872 173.485 371.872C174.467 371.872 175.229 372.181 175.773 372.8C176.317 373.419 176.589 374.325 176.589 375.52V380H174.541V375.712C174.541 375.029 174.403 374.507 174.125 374.144C173.848 373.781 173.416 373.6 172.829 373.6C172.253 373.6 171.779 373.803 171.405 374.208C171.043 374.613 170.861 375.179 170.861 375.904V380H168.813ZM181.908 377.632C181.524 377.632 181.166 377.589 180.836 377.504L180.244 378.096C180.425 378.192 180.67 378.272 180.98 378.336C181.289 378.4 181.79 378.464 182.484 378.528C183.54 378.624 184.308 378.875 184.788 379.28C185.268 379.685 185.508 380.245 185.508 380.96C185.508 381.429 185.38 381.872 185.124 382.288C184.868 382.715 184.473 383.056 183.94 383.312C183.406 383.579 182.724 383.712 181.892 383.712C180.761 383.712 179.849 383.499 179.156 383.072C178.462 382.656 178.116 382.027 178.116 381.184C178.116 380.469 178.462 379.851 179.156 379.328C178.942 379.232 178.756 379.131 178.596 379.024C178.446 378.917 178.313 378.805 178.196 378.688V378.32L179.588 376.848C178.969 376.304 178.66 375.605 178.66 374.752C178.66 374.219 178.788 373.733 179.044 373.296C179.31 372.859 179.684 372.512 180.164 372.256C180.644 372 181.225 371.872 181.908 371.872C182.356 371.872 182.772 371.936 183.156 372.064H186.164V373.312L184.804 373.408C185.017 373.813 185.124 374.261 185.124 374.752C185.124 375.285 184.996 375.771 184.74 376.208C184.484 376.645 184.11 376.992 183.62 377.248C183.14 377.504 182.569 377.632 181.908 377.632ZM181.908 376.064C182.324 376.064 182.665 375.952 182.932 375.728C183.209 375.504 183.348 375.184 183.348 374.768C183.348 374.352 183.209 374.032 182.932 373.808C182.665 373.584 182.324 373.472 181.908 373.472C181.47 373.472 181.118 373.584 180.852 373.808C180.585 374.032 180.452 374.352 180.452 374.768C180.452 375.184 180.585 375.504 180.852 375.728C181.118 375.952 181.47 376.064 181.908 376.064ZM179.988 380.976C179.988 381.371 180.169 381.664 180.532 381.856C180.905 382.059 181.358 382.16 181.892 382.16C182.404 382.16 182.82 382.053 183.14 381.84C183.46 381.637 183.62 381.36 183.62 381.008C183.62 380.72 183.513 380.48 183.3 380.288C183.097 380.096 182.686 379.979 182.068 379.936C181.63 379.904 181.225 379.856 180.852 379.792C180.542 379.963 180.318 380.149 180.18 380.352C180.052 380.555 179.988 380.763 179.988 380.976ZM195.006 380C194.174 380 193.507 379.797 193.006 379.392C192.504 378.987 192.254 378.267 192.254 377.232V373.776H190.894V372.064H192.254L192.494 369.936H194.302V372.064H196.446V373.776H194.302V377.248C194.302 377.632 194.382 377.899 194.542 378.048C194.712 378.187 195 378.256 195.406 378.256H196.398V380H195.006ZM198.204 380V368.48H200.252V373.28C200.519 372.843 200.876 372.501 201.324 372.256C201.783 372 202.305 371.872 202.892 371.872C203.873 371.872 204.631 372.181 205.164 372.8C205.708 373.419 205.98 374.325 205.98 375.52V380H203.948V375.712C203.948 375.029 203.809 374.507 203.532 374.144C203.265 373.781 202.839 373.6 202.252 373.6C201.676 373.6 201.196 373.803 200.812 374.208C200.439 374.613 200.252 375.179 200.252 375.904V380H198.204ZM211.794 380.192C210.994 380.192 210.285 380.021 209.666 379.68C209.048 379.339 208.562 378.859 208.21 378.24C207.858 377.621 207.682 376.907 207.682 376.096C207.682 375.275 207.853 374.544 208.194 373.904C208.546 373.264 209.026 372.768 209.634 372.416C210.253 372.053 210.978 371.872 211.81 371.872C212.589 371.872 213.277 372.043 213.874 372.384C214.472 372.725 214.936 373.195 215.266 373.792C215.608 374.379 215.778 375.035 215.778 375.76C215.778 375.877 215.773 376 215.762 376.128C215.762 376.256 215.757 376.389 215.746 376.528H209.714C209.757 377.147 209.97 377.632 210.354 377.984C210.749 378.336 211.224 378.512 211.778 378.512C212.194 378.512 212.541 378.421 212.818 378.24C213.106 378.048 213.32 377.803 213.458 377.504H215.538C215.389 378.005 215.138 378.464 214.786 378.88C214.445 379.285 214.018 379.605 213.506 379.84C213.005 380.075 212.434 380.192 211.794 380.192ZM211.81 373.536C211.309 373.536 210.866 373.68 210.482 373.968C210.098 374.245 209.853 374.672 209.746 375.248H213.698C213.666 374.725 213.474 374.309 213.122 374C212.77 373.691 212.333 373.536 211.81 373.536ZM221.313 383.52V372.064H223.137L223.361 373.2C223.617 372.848 223.953 372.539 224.369 372.272C224.796 372.005 225.345 371.872 226.017 371.872C226.764 371.872 227.431 372.053 228.017 372.416C228.604 372.779 229.068 373.275 229.409 373.904C229.751 374.533 229.921 375.248 229.921 376.048C229.921 376.848 229.751 377.563 229.409 378.192C229.068 378.811 228.604 379.301 228.017 379.664C227.431 380.016 226.764 380.192 226.017 380.192C225.42 380.192 224.897 380.08 224.449 379.856C224.001 379.632 223.639 379.317 223.361 378.912V383.52H221.313ZM225.585 378.4C226.236 378.4 226.775 378.181 227.201 377.744C227.628 377.307 227.841 376.741 227.841 376.048C227.841 375.355 227.628 374.784 227.201 374.336C226.775 373.888 226.236 373.664 225.585 373.664C224.924 373.664 224.38 373.888 223.953 374.336C223.537 374.773 223.329 375.339 223.329 376.032C223.329 376.725 223.537 377.296 223.953 377.744C224.38 378.181 224.924 378.4 225.585 378.4ZM231.751 380V372.064H233.575L233.767 373.552C234.055 373.04 234.444 372.635 234.935 372.336C235.436 372.027 236.023 371.872 236.695 371.872V374.032H236.119C235.671 374.032 235.271 374.101 234.919 374.24C234.567 374.379 234.29 374.619 234.087 374.96C233.895 375.301 233.799 375.776 233.799 376.384V380H231.751ZM241.762 380.192C240.994 380.192 240.301 380.016 239.682 379.664C239.074 379.312 238.589 378.827 238.226 378.208C237.874 377.579 237.698 376.853 237.698 376.032C237.698 375.211 237.879 374.491 238.242 373.872C238.605 373.243 239.09 372.752 239.698 372.4C240.317 372.048 241.01 371.872 241.778 371.872C242.535 371.872 243.218 372.048 243.826 372.4C244.445 372.752 244.93 373.243 245.282 373.872C245.645 374.491 245.826 375.211 245.826 376.032C245.826 376.853 245.645 377.579 245.282 378.208C244.93 378.827 244.445 379.312 243.826 379.664C243.207 380.016 242.519 380.192 241.762 380.192ZM241.762 378.416C242.295 378.416 242.759 378.219 243.154 377.824C243.549 377.419 243.746 376.821 243.746 376.032C243.746 375.243 243.549 374.651 243.154 374.256C242.759 373.851 242.301 373.648 241.778 373.648C241.234 373.648 240.765 373.851 240.37 374.256C239.986 374.651 239.794 375.243 239.794 376.032C239.794 376.821 239.986 377.419 240.37 377.824C240.765 378.219 241.229 378.416 241.762 378.416ZM247.657 383.52V372.064H249.481L249.705 373.2C249.961 372.848 250.297 372.539 250.713 372.272C251.14 372.005 251.689 371.872 252.361 371.872C253.108 371.872 253.775 372.053 254.361 372.416C254.948 372.779 255.412 373.275 255.753 373.904C256.095 374.533 256.265 375.248 256.265 376.048C256.265 376.848 256.095 377.563 255.753 378.192C255.412 378.811 254.948 379.301 254.361 379.664C253.775 380.016 253.108 380.192 252.361 380.192C251.764 380.192 251.241 380.08 250.793 379.856C250.345 379.632 249.983 379.317 249.705 378.912V383.52H247.657ZM251.929 378.4C252.58 378.4 253.119 378.181 253.545 377.744C253.972 377.307 254.185 376.741 254.185 376.048C254.185 375.355 253.972 374.784 253.545 374.336C253.119 373.888 252.58 373.664 251.929 373.664C251.268 373.664 250.724 373.888 250.297 374.336C249.881 374.773 249.673 375.339 249.673 376.032C249.673 376.725 249.881 377.296 250.297 377.744C250.724 378.181 251.268 378.4 251.929 378.4ZM261.951 380.192C261.151 380.192 260.441 380.021 259.823 379.68C259.204 379.339 258.719 378.859 258.367 378.24C258.015 377.621 257.839 376.907 257.839 376.096C257.839 375.275 258.009 374.544 258.351 373.904C258.703 373.264 259.183 372.768 259.791 372.416C260.409 372.053 261.135 371.872 261.967 371.872C262.745 371.872 263.433 372.043 264.031 372.384C264.628 372.725 265.092 373.195 265.423 373.792C265.764 374.379 265.935 375.035 265.935 375.76C265.935 375.877 265.929 376 265.919 376.128C265.919 376.256 265.913 376.389 265.903 376.528H259.871C259.913 377.147 260.127 377.632 260.511 377.984C260.905 378.336 261.38 378.512 261.935 378.512C262.351 378.512 262.697 378.421 262.975 378.24C263.263 378.048 263.476 377.803 263.615 377.504H265.695C265.545 378.005 265.295 378.464 264.943 378.88C264.601 379.285 264.175 379.605 263.663 379.84C263.161 380.075 262.591 380.192 261.951 380.192ZM261.967 373.536C261.465 373.536 261.023 373.68 260.639 373.968C260.255 374.245 260.009 374.672 259.903 375.248H263.855C263.823 374.725 263.631 374.309 263.279 374C262.927 373.691 262.489 373.536 261.967 373.536ZM267.657 380V372.064H269.481L269.673 373.552C269.961 373.04 270.351 372.635 270.841 372.336C271.343 372.027 271.929 371.872 272.601 371.872V374.032H272.025C271.577 374.032 271.177 374.101 270.825 374.24C270.473 374.379 270.196 374.619 269.993 374.96C269.801 375.301 269.705 375.776 269.705 376.384V380H267.657ZM120.329 401V393.064H122.153L122.345 394.552C122.633 394.04 123.022 393.635 123.513 393.336C124.014 393.027 124.601 392.872 125.273 392.872V395.032H124.697C124.249 395.032 123.849 395.101 123.497 395.24C123.145 395.379 122.868 395.619 122.665 395.96C122.473 396.301 122.377 396.776 122.377 397.384V401H120.329ZM130.388 401.192C129.588 401.192 128.879 401.021 128.26 400.68C127.642 400.339 127.156 399.859 126.804 399.24C126.452 398.621 126.276 397.907 126.276 397.096C126.276 396.275 126.447 395.544 126.788 394.904C127.14 394.264 127.62 393.768 128.228 393.416C128.847 393.053 129.572 392.872 130.404 392.872C131.183 392.872 131.871 393.043 132.468 393.384C133.066 393.725 133.53 394.195 133.86 394.792C134.202 395.379 134.372 396.035 134.372 396.76C134.372 396.877 134.367 397 134.356 397.128C134.356 397.256 134.351 397.389 134.34 397.528H128.308C128.351 398.147 128.564 398.632 128.948 398.984C129.343 399.336 129.818 399.512 130.372 399.512C130.788 399.512 131.135 399.421 131.412 399.24C131.7 399.048 131.914 398.803 132.052 398.504H134.132C133.983 399.005 133.732 399.464 133.38 399.88C133.039 400.285 132.612 400.605 132.1 400.84C131.599 401.075 131.028 401.192 130.388 401.192ZM130.404 394.536C129.903 394.536 129.46 394.68 129.076 394.968C128.692 395.245 128.447 395.672 128.34 396.248H132.292C132.26 395.725 132.068 395.309 131.716 395C131.364 394.691 130.927 394.536 130.404 394.536ZM139.375 401.192C138.671 401.192 138.052 401.08 137.519 400.856C136.985 400.621 136.559 400.301 136.239 399.896C135.919 399.491 135.727 399.021 135.663 398.488H137.727C137.791 398.797 137.961 399.064 138.239 399.288C138.527 399.501 138.895 399.608 139.343 399.608C139.791 399.608 140.116 399.517 140.319 399.336C140.532 399.155 140.639 398.947 140.639 398.712C140.639 398.371 140.489 398.141 140.191 398.024C139.892 397.896 139.476 397.773 138.943 397.656C138.601 397.581 138.255 397.491 137.903 397.384C137.551 397.277 137.225 397.144 136.927 396.984C136.639 396.813 136.404 396.6 136.223 396.344C136.041 396.077 135.951 395.752 135.951 395.368C135.951 394.664 136.228 394.072 136.783 393.592C137.348 393.112 138.137 392.872 139.151 392.872C140.089 392.872 140.836 393.091 141.391 393.528C141.956 393.965 142.292 394.568 142.399 395.336H140.463C140.345 394.749 139.903 394.456 139.135 394.456C138.751 394.456 138.452 394.531 138.239 394.68C138.036 394.829 137.935 395.016 137.935 395.24C137.935 395.475 138.089 395.661 138.399 395.8C138.708 395.939 139.119 396.067 139.631 396.184C140.185 396.312 140.692 396.456 141.151 396.616C141.62 396.765 141.993 396.995 142.271 397.304C142.548 397.603 142.687 398.035 142.687 398.6C142.697 399.091 142.569 399.533 142.303 399.928C142.036 400.323 141.652 400.632 141.151 400.856C140.649 401.08 140.057 401.192 139.375 401.192ZM148.309 401.192C147.541 401.192 146.848 401.016 146.229 400.664C145.621 400.312 145.136 399.827 144.773 399.208C144.421 398.579 144.245 397.853 144.245 397.032C144.245 396.211 144.426 395.491 144.789 394.872C145.152 394.243 145.637 393.752 146.245 393.4C146.864 393.048 147.557 392.872 148.325 392.872C149.082 392.872 149.765 393.048 150.373 393.4C150.992 393.752 151.477 394.243 151.829 394.872C152.192 395.491 152.373 396.211 152.373 397.032C152.373 397.853 152.192 398.579 151.829 399.208C151.477 399.827 150.992 400.312 150.373 400.664C149.754 401.016 149.066 401.192 148.309 401.192ZM148.309 399.416C148.842 399.416 149.306 399.219 149.701 398.824C150.096 398.419 150.293 397.821 150.293 397.032C150.293 396.243 150.096 395.651 149.701 395.256C149.306 394.851 148.848 394.648 148.325 394.648C147.781 394.648 147.312 394.851 146.917 395.256C146.533 395.651 146.341 396.243 146.341 397.032C146.341 397.821 146.533 398.419 146.917 398.824C147.312 399.219 147.776 399.416 148.309 399.416ZM161.852 393.064V401H160.044L159.884 399.656C159.639 400.125 159.281 400.499 158.812 400.776C158.353 401.053 157.809 401.192 157.18 401.192C156.199 401.192 155.436 400.883 154.892 400.264C154.348 399.645 154.076 398.739 154.076 397.544V393.064H156.124V397.352C156.124 398.035 156.263 398.557 156.54 398.92C156.817 399.283 157.249 399.464 157.836 399.464C158.412 399.464 158.881 399.261 159.244 398.856C159.617 398.451 159.804 397.885 159.804 397.16V393.064H161.852ZM163.938 401V393.064H165.762L165.954 394.552C166.242 394.04 166.632 393.635 167.122 393.336C167.624 393.027 168.21 392.872 168.882 392.872V395.032H168.306C167.858 395.032 167.458 395.101 167.106 395.24C166.754 395.379 166.477 395.619 166.274 395.96C166.082 396.301 165.986 396.776 165.986 397.384V401H163.938ZM174.03 401.192C173.219 401.192 172.504 401.016 171.886 400.664C171.267 400.312 170.776 399.821 170.414 399.192C170.062 398.563 169.886 397.843 169.886 397.032C169.886 396.221 170.062 395.501 170.414 394.872C170.776 394.243 171.267 393.752 171.886 393.4C172.504 393.048 173.219 392.872 174.03 392.872C175.043 392.872 175.896 393.139 176.59 393.672C177.283 394.195 177.726 394.92 177.918 395.848H175.758C175.651 395.464 175.438 395.165 175.118 394.952C174.808 394.728 174.44 394.616 174.014 394.616C173.448 394.616 172.968 394.829 172.574 395.256C172.179 395.683 171.982 396.275 171.982 397.032C171.982 397.789 172.179 398.381 172.574 398.808C172.968 399.235 173.448 399.448 174.014 399.448C174.44 399.448 174.808 399.341 175.118 399.128C175.438 398.915 175.651 398.611 175.758 398.216H177.918C177.726 399.112 177.283 399.832 176.59 400.376C175.896 400.92 175.043 401.192 174.03 401.192ZM183.591 401.192C182.791 401.192 182.082 401.021 181.463 400.68C180.845 400.339 180.359 399.859 180.007 399.24C179.655 398.621 179.479 397.907 179.479 397.096C179.479 396.275 179.65 395.544 179.991 394.904C180.343 394.264 180.823 393.768 181.431 393.416C182.05 393.053 182.775 392.872 183.607 392.872C184.386 392.872 185.074 393.043 185.671 393.384C186.269 393.725 186.733 394.195 187.063 394.792C187.405 395.379 187.575 396.035 187.575 396.76C187.575 396.877 187.57 397 187.559 397.128C187.559 397.256 187.554 397.389 187.543 397.528H181.511C181.554 398.147 181.767 398.632 182.151 398.984C182.546 399.336 183.021 399.512 183.575 399.512C183.991 399.512 184.338 399.421 184.615 399.24C184.903 399.048 185.117 398.803 185.255 398.504H187.335C187.186 399.005 186.935 399.464 186.583 399.88C186.242 400.285 185.815 400.605 185.303 400.84C184.802 401.075 184.231 401.192 183.591 401.192ZM183.607 394.536C183.106 394.536 182.663 394.68 182.279 394.968C181.895 395.245 181.65 395.672 181.543 396.248H185.495C185.463 395.725 185.271 395.309 184.919 395C184.567 394.691 184.13 394.536 183.607 394.536ZM192.578 401.192C191.874 401.192 191.255 401.08 190.722 400.856C190.188 400.621 189.762 400.301 189.442 399.896C189.122 399.491 188.93 399.021 188.866 398.488H190.93C190.994 398.797 191.164 399.064 191.442 399.288C191.73 399.501 192.098 399.608 192.546 399.608C192.994 399.608 193.319 399.517 193.522 399.336C193.735 399.155 193.842 398.947 193.842 398.712C193.842 398.371 193.692 398.141 193.394 398.024C193.095 397.896 192.679 397.773 192.146 397.656C191.804 397.581 191.458 397.491 191.106 397.384C190.754 397.277 190.428 397.144 190.13 396.984C189.842 396.813 189.607 396.6 189.426 396.344C189.244 396.077 189.154 395.752 189.154 395.368C189.154 394.664 189.431 394.072 189.986 393.592C190.551 393.112 191.34 392.872 192.354 392.872C193.292 392.872 194.039 393.091 194.594 393.528C195.159 393.965 195.495 394.568 195.602 395.336H193.666C193.548 394.749 193.106 394.456 192.338 394.456C191.954 394.456 191.655 394.531 191.442 394.68C191.239 394.829 191.138 395.016 191.138 395.24C191.138 395.475 191.292 395.661 191.602 395.8C191.911 395.939 192.322 396.067 192.834 396.184C193.388 396.312 193.895 396.456 194.354 396.616C194.823 396.765 195.196 396.995 195.474 397.304C195.751 397.603 195.89 398.035 195.89 398.6C195.9 399.091 195.772 399.533 195.506 399.928C195.239 400.323 194.855 400.632 194.354 400.856C193.852 401.08 193.26 401.192 192.578 401.192ZM198.465 397.512L198.401 394.872H199.137C199.681 394.872 200.177 394.824 200.625 394.728C201.073 394.632 201.431 394.445 201.697 394.168C201.964 393.891 202.097 393.485 202.097 392.952C202.097 392.44 201.943 392.04 201.633 391.752C201.324 391.453 200.913 391.304 200.401 391.304C199.868 391.304 199.452 391.453 199.153 391.752C198.855 392.04 198.705 392.435 198.705 392.936H196.769C196.759 392.296 196.897 391.725 197.185 391.224C197.473 390.723 197.889 390.328 198.433 390.04C198.988 389.752 199.649 389.608 200.417 389.608C201.132 389.608 201.761 389.741 202.305 390.008C202.86 390.275 203.292 390.659 203.601 391.16C203.921 391.651 204.081 392.253 204.081 392.968C204.081 393.704 203.916 394.312 203.585 394.792C203.265 395.272 202.823 395.629 202.257 395.864C201.703 396.099 201.057 396.221 200.321 396.232L200.273 397.512H198.465ZM199.377 401.112C199.004 401.112 198.695 400.995 198.449 400.76C198.215 400.525 198.097 400.243 198.097 399.912C198.097 399.571 198.215 399.283 198.449 399.048C198.695 398.813 199.004 398.696 199.377 398.696C199.751 398.696 200.055 398.813 200.289 399.048C200.524 399.283 200.641 399.571 200.641 399.912C200.641 400.243 200.524 400.525 200.289 400.76C200.055 400.995 199.751 401.112 199.377 401.112Z" fill="white"/>
<path d="M113.036 263.813C97.0922 250.059 87 229.708 87 207C87 165.579 120.579 132 162 132C203.421 132 237 165.579 237 207C237 229.714 226.903 250.069 210.953 263.823L113.036 263.813Z" fill="#7584F2"/>
<path d="M236.997 206.429L184.134 153.437L182.512 151.943L132.868 213.69L133.446 214.313L154.241 235.063L210.964 263.813C226.908 250.059 237 229.708 237 207C237 206.809 236.999 206.619 236.997 206.429Z" fill="#4855B7"/>
<path d="M140.331 217.132H183.669L188.717 201.575H135.927L140.331 217.132Z" fill="#FFAA00"/>
<path d="M162 217.132H183.669L188.717 201.575H162V217.132Z" fill="#FF9500"/>
<path d="M195.503 233.812C195.499 233.814 195.496 233.815 195.492 233.817C193.579 231.786 191.024 230.349 188.1 229.856L178.287 228.204C178.246 228.197 178.205 228.189 178.165 228.182C173.908 232.088 168.232 234.472 162 234.472C155.767 234.472 150.091 232.088 145.835 228.182C145.794 228.189 145.753 228.197 145.712 228.204L135.899 229.856C132.976 230.349 130.42 231.786 128.507 233.817C128.504 233.815 128.5 233.814 128.497 233.812C126.254 236.19 124.901 239.388 124.901 242.861V255.269C135.601 262.149 148.334 266.141 162 266.141C175.666 266.141 188.399 262.149 199.098 255.269V242.861C199.098 239.388 197.745 236.19 195.503 233.812Z" fill="#64E1DC"/>
<path d="M199.098 242.861C199.098 239.388 197.745 236.19 195.503 233.812C195.5 233.814 195.496 233.815 195.492 233.817C193.58 231.786 191.024 230.349 188.101 229.856L178.287 228.204C178.246 228.197 178.206 228.189 178.165 228.182C173.916 232.081 168.22 234.463 162 234.472V266.14C175.654 266.134 188.408 262.144 199.098 255.268V242.861Z" fill="#00C8C8"/>
<path d="M144.815 228.355C148.908 233.291 155.087 236.435 162 236.435C168.913 236.435 175.092 233.291 179.185 228.355L178.287 228.204C175.061 227.66 172.699 224.867 172.699 221.595V206.698H151.301V221.595C151.301 224.867 148.939 227.66 145.713 228.204L144.815 228.355Z" fill="#FFCDBE"/>
<path d="M179.185 228.355L178.287 228.204C175.061 227.66 172.699 224.867 172.699 221.595V206.698H162V236.434C168.9 236.424 175.098 233.283 179.185 228.355Z" fill="#FFBEAA"/>
<path d="M162 218.651C148.927 218.651 137.272 208.054 137.272 194.982V181.821C137.272 168.749 148.928 158.152 162 158.152C175.072 158.152 186.727 168.749 186.727 181.821V194.982C186.727 208.054 175.072 218.651 162 218.651Z" fill="#FFDECF"/>
<path d="M162 158.152V218.651C175.072 218.651 186.727 208.054 186.727 194.982V181.821C186.727 168.749 175.072 158.152 162 158.152Z" fill="#FFCDBE"/>
<path d="M130.514 175.83V207.315C130.514 212.737 134.909 217.132 140.331 217.132V181.298H183.669V217.132C189.091 217.132 193.486 212.737 193.486 207.315V175.83C193.486 158.441 179.39 144.344 162 144.344C144.61 144.344 130.514 158.441 130.514 175.83Z" fill="#FFCE00"/>
<path d="M162 181.298H183.669V217.132C189.091 217.132 193.486 212.737 193.486 207.315V175.83C193.486 158.441 179.389 144.344 162 144.344V181.298Z" fill="#FFAA00"/>
<path d="M113.036 263.813C126.175 275.147 143.287 282 162 282C180.713 282 197.826 275.147 210.964 263.813V240.096H113.036V263.813Z" fill="#F2F6FC"/>
<path d="M162 282C180.713 282 197.825 275.147 210.964 263.813V240.096H162V282Z" fill="#DCE1EB"/>
<path d="M162 274.415C166.784 274.415 170.662 270.537 170.662 265.753C170.662 260.969 166.784 257.091 162 257.091C157.216 257.091 153.338 260.969 153.338 265.753C153.338 270.537 157.216 274.415 162 274.415Z" fill="#CDD2E1"/>
<path d="M162 257.091C166.784 257.091 170.662 260.969 170.662 265.753C170.662 270.537 166.784 274.415 162 274.415V257.091Z" fill="#AFB4C8"/>
<path d="M106.306 82.9062V64.7062H109.634V82.9062H106.306ZM113.084 82.9062V70.0102H116.022L116.282 72.1942C116.68 71.4316 117.252 70.8249 117.998 70.3742C118.76 69.9236 119.653 69.6982 120.676 69.6982C122.27 69.6982 123.51 70.2009 124.394 71.2062C125.278 72.2116 125.72 73.6849 125.72 75.6262V82.9062H122.392V75.9382C122.392 74.8289 122.166 73.9796 121.716 73.3902C121.265 72.8009 120.563 72.5062 119.61 72.5062C118.674 72.5062 117.902 72.8356 117.296 73.4942C116.706 74.1529 116.412 75.0716 116.412 76.2502V82.9062H113.084ZM134.83 83.2183C133.617 83.2183 132.533 82.9236 131.58 82.3342C130.627 81.7449 129.873 80.9389 129.318 79.9162C128.763 78.8936 128.486 77.7322 128.486 76.4322C128.486 75.1322 128.763 73.9796 129.318 72.9742C129.873 71.9516 130.627 71.1542 131.58 70.5822C132.533 69.9929 133.617 69.6982 134.83 69.6982C135.801 69.6982 136.65 69.8802 137.378 70.2442C138.106 70.6082 138.695 71.1196 139.146 71.7782V64.1862H142.474V82.9062H139.51L139.146 81.0602C138.73 81.6322 138.175 82.1349 137.482 82.5682C136.806 83.0016 135.922 83.2183 134.83 83.2183ZM135.532 80.3062C136.607 80.3062 137.482 79.9509 138.158 79.2402C138.851 78.5122 139.198 77.5849 139.198 76.4582C139.198 75.3316 138.851 74.4129 138.158 73.7022C137.482 72.9742 136.607 72.6102 135.532 72.6102C134.475 72.6102 133.599 72.9656 132.906 73.6762C132.213 74.3869 131.866 75.3056 131.866 76.4322C131.866 77.5589 132.213 78.4862 132.906 79.2142C133.599 79.9422 134.475 80.3062 135.532 80.3062ZM152.051 83.2183C150.803 83.2183 149.676 82.9322 148.671 82.3602C147.683 81.7882 146.894 80.9996 146.305 79.9942C145.733 78.9716 145.447 77.7929 145.447 76.4582C145.447 75.1236 145.742 73.9536 146.331 72.9482C146.92 71.9256 147.709 71.1282 148.697 70.5562C149.702 69.9842 150.829 69.6982 152.077 69.6982C153.308 69.6982 154.417 69.9842 155.405 70.5562C156.41 71.1282 157.199 71.9256 157.771 72.9482C158.36 73.9536 158.655 75.1236 158.655 76.4582C158.655 77.7929 158.36 78.9716 157.771 79.9942C157.199 80.9996 156.41 81.7882 155.405 82.3602C154.4 82.9322 153.282 83.2183 152.051 83.2183ZM152.051 80.3322C152.918 80.3322 153.672 80.0116 154.313 79.3702C154.954 78.7116 155.275 77.7409 155.275 76.4582C155.275 75.1756 154.954 74.2136 154.313 73.5722C153.672 72.9136 152.926 72.5842 152.077 72.5842C151.193 72.5842 150.43 72.9136 149.789 73.5722C149.165 74.2136 148.853 75.1756 148.853 76.4582C148.853 77.7409 149.165 78.7116 149.789 79.3702C150.43 80.0116 151.184 80.3322 152.051 80.3322ZM161.344 76.7702V73.9882H172.238V76.7702H161.344ZM175.419 82.9062V64.7062H187.301V67.3842H178.747V72.3762H186.521V74.9762H178.747V80.2282H187.301V82.9062H175.419ZM196.301 83.2183C195.087 83.2183 194.004 82.9236 193.051 82.3342C192.097 81.7449 191.343 80.9389 190.789 79.9162C190.234 78.8936 189.957 77.7322 189.957 76.4322C189.957 75.1322 190.234 73.9796 190.789 72.9742C191.343 71.9516 192.097 71.1542 193.051 70.5822C194.004 69.9929 195.087 69.6982 196.301 69.6982C197.271 69.6982 198.121 69.8802 198.849 70.2442C199.577 70.6082 200.166 71.1196 200.617 71.7782V64.1862H203.945V82.9062H200.981L200.617 81.0602C200.201 81.6322 199.646 82.1349 198.953 82.5682C198.277 83.0016 197.393 83.2183 196.301 83.2183ZM197.003 80.3062C198.077 80.3062 198.953 79.9509 199.629 79.2402C200.322 78.5122 200.669 77.5849 200.669 76.4582C200.669 75.3316 200.322 74.4129 199.629 73.7022C198.953 72.9742 198.077 72.6102 197.003 72.6102C195.945 72.6102 195.07 72.9656 194.377 73.6762C193.683 74.3869 193.337 75.3056 193.337 76.4322C193.337 77.5589 193.683 78.4862 194.377 79.2142C195.07 79.9422 195.945 80.3062 197.003 80.3062ZM219.762 70.0102V82.9062H216.824L216.564 80.7222C216.165 81.4849 215.584 82.0916 214.822 82.5422C214.076 82.9929 213.192 83.2183 212.17 83.2183C210.575 83.2183 209.336 82.7156 208.452 81.7102C207.568 80.7049 207.126 79.2316 207.126 77.2902V70.0102H210.454V76.9782C210.454 78.0876 210.679 78.9369 211.13 79.5262C211.58 80.1156 212.282 80.4102 213.236 80.4102C214.172 80.4102 214.934 80.0809 215.524 79.4222C216.13 78.7636 216.434 77.8449 216.434 76.6662V70.0102H219.762Z" fill="white"/>
<path d="M162.5 59.625C162.32 59.625 162.144 59.5782 161.988 59.4891L152.961 54.3296C152.882 54.2843 152.794 54.2605 152.703 54.2605C152.612 54.2605 152.523 54.2844 152.445 54.3298C152.367 54.3751 152.301 54.4403 152.256 54.5188C152.211 54.5973 152.187 54.6863 152.188 54.7769V59.625C152.187 59.8091 152.236 59.9898 152.33 60.1485C152.423 60.3072 152.557 60.438 152.718 60.5274L161.999 65.6836C162.152 65.7687 162.325 65.8134 162.5 65.8134C162.675 65.8134 162.848 65.7687 163.001 65.6836L172.282 60.5274C172.443 60.438 172.577 60.3072 172.67 60.1485C172.764 59.9898 172.813 59.8091 172.812 59.625V54.7769C172.813 54.6863 172.789 54.5973 172.744 54.5188C172.698 54.4403 172.633 54.3751 172.555 54.3298C172.477 54.2844 172.388 54.2605 172.297 54.2605C172.206 54.2605 172.117 54.2843 172.039 54.3296L163.012 59.4891C162.856 59.5782 162.68 59.625 162.5 59.625Z" fill="white"/>
<path d="M177.964 48.1845V48.1774C177.947 48.014 177.892 47.8568 177.802 47.7192C177.712 47.5815 177.591 47.4672 177.448 47.3859L163.011 39.1359C162.855 39.0469 162.678 39 162.499 39C162.319 39 162.143 39.0469 161.987 39.1359L147.55 47.3859C147.392 47.4762 147.261 47.6065 147.17 47.7637C147.078 47.9209 147.03 48.0994 147.03 48.2812C147.03 48.463 147.078 48.6415 147.17 48.7987C147.261 48.9559 147.392 49.0862 147.55 49.1764L161.987 57.4264C162.143 57.5155 162.319 57.5624 162.499 57.5624C162.678 57.5624 162.855 57.5155 163.011 57.4264L175.713 50.1684C175.733 50.157 175.755 50.1511 175.778 50.1511C175.8 50.1511 175.823 50.1571 175.842 50.1685C175.862 50.1799 175.878 50.1962 175.889 50.2159C175.901 50.2356 175.907 50.2579 175.906 50.2805V59.5959C175.906 60.1509 176.333 60.6272 176.888 60.6549C177.028 60.6616 177.167 60.64 177.298 60.5912C177.428 60.5425 177.548 60.4677 177.649 60.3714C177.75 60.2751 177.831 60.1593 177.886 60.031C177.941 59.9027 177.969 59.7645 177.969 59.6249V48.2812C177.969 48.2489 177.967 48.2166 177.964 48.1845Z" fill="white"/>
<defs>
<linearGradient id="paint0_linear" x1="162.5" y1="-4.48155e-06" x2="162.5" y2="532" gradientUnits="userSpaceOnUse">
<stop stop-color="#8C63FF"/>
<stop offset="1" stop-color="#161178"/>
</linearGradient>
</defs>
</svg>
